<svg width="514" height="87" viewBox="0 0 514 87" fill="none" xmlns="http://www.w3.org/2000/svg">
<path d="M16.5469 1.56836H17.3906C18.2344 1.56836 18.7969 2.17773 19.0781 3.39648V3.53711C18.8906 4.19336 18.75 4.52148 18.6562 4.52148H18.5156L16.6875 2.41211L16.4062 2.13086V1.99023C16.4062 1.70898 16.4531 1.56836 16.5469 1.56836ZM11.9062 4.09961H12.3281C12.9844 4.09961 13.4531 4.61523 13.7344 5.64648C14.1094 5.64648 14.2969 6.16211 14.2969 7.19336L16.5469 12.8184H16.6875C17.25 11.5996 17.8125 10.9902 18.375 10.9902C18.6562 11.084 18.7969 11.3184 18.7969 11.6934C18.3281 13.4746 17.9062 14.6465 17.5312 15.209C18.5625 17.834 19.7344 20.0371 21.0469 21.8184C21.2344 21.8184 21.5625 22.1465 22.0312 22.8027C22.0312 23.084 21.6094 23.5059 20.7656 24.0684C20.7656 24.7246 20.25 25.0527 19.2188 25.0527C18.8438 24.959 18.6562 24.7246 18.6562 24.3496C18.8438 23.7871 19.0312 23.5059 19.2188 23.5059H19.6406H20.3438L20.4844 23.3652C19.3594 22.2402 18.3281 20.6465 17.3906 18.584C17.0156 17.9277 16.7812 17.5996 16.6875 17.5996C16.5938 17.5996 16.1719 17.7871 15.4219 18.1621C15.0469 17.9746 14.8594 17.8809 14.8594 17.8809V17.5996C15.2344 17.0371 15.5156 16.2871 15.7031 15.3496L14.0156 11.5527H13.7344C13.7344 11.834 12.7031 12.209 10.6406 12.6777C9.04688 13.2402 7.5 14.1777 6 15.4902C4.78125 18.7715 3.28125 21.6777 1.5 24.209C1.125 24.584 0.796875 24.7715 0.515625 24.7715L0.375 24.209C0.375 24.0215 0.9375 23.0371 2.0625 21.2559C2.25 20.6934 2.95312 19.2871 4.17188 17.0371C4.64062 14.5059 5.34375 12.4902 6.28125 10.9902C6.28125 10.2402 6.46875 9.58398 6.84375 9.02148C6.84375 8.83398 6.75 8.74023 6.5625 8.74023C5.90625 8.92773 5.39062 9.02148 5.01562 9.02148C4.54688 9.02148 4.26562 8.74023 4.17188 8.17773C4.17188 7.52148 4.78125 7.19336 6 7.19336C7.40625 7.19336 9.375 6.81836 11.9062 6.06836V5.78711C11.625 5.03711 11.4844 4.56836 11.4844 4.38086C11.4844 4.19336 11.625 4.09961 11.9062 4.09961ZM7.40625 8.74023V8.88086C7.40625 9.16211 7.59375 9.30273 7.96875 9.30273V9.44336C7.96875 9.63086 7.59375 10.8027 6.84375 12.959V13.0996H7.26562C8.01562 12.4434 9.70312 11.5059 12.3281 10.2871C12.9844 10.1934 13.3125 10.0527 13.3125 9.86523C13.125 8.55273 12.7969 7.70898 12.3281 7.33398H12.1875C10.7812 7.89648 9.1875 8.36523 7.40625 8.74023ZM11.7656 14.5059C12.6094 14.5059 13.0781 14.7871 13.1719 15.3496C12.0469 18.5371 10.5469 20.6934 8.67188 21.8184H7.96875C7.6875 21.8184 7.40625 21.209 7.125 19.9902L7.26562 19.8496V19.709C6.98438 18.959 6.70312 18.0215 6.42188 16.8965C6.60938 16.4277 6.9375 16.1934 7.40625 16.1934H7.54688C7.92188 16.1934 8.20312 17.1777 8.39062 19.1465C8.57812 19.6152 8.76562 19.8496 8.95312 19.8496C10.2656 18.5371 10.9219 17.4121 10.9219 16.4746V16.334C10.1719 16.2402 9.79688 16.1465 9.79688 16.0527V15.7715C10.2656 14.9277 10.9219 14.5059 11.7656 14.5059ZM4.875 21.2559C5.34375 21.2559 5.57812 21.3965 5.57812 21.6777L5.29688 24.6309C6.23438 24.6309 7.21875 25.5684 8.25 27.4434C10.125 29.0371 11.9062 29.834 13.5938 29.834H14.7188C16.4062 29.834 17.25 29.6934 17.25 29.4121V29.1309C16.2188 28.3809 15.7031 27.9121 15.7031 27.7246V27.584C15.7031 27.4902 15.75 27.4434 15.8438 27.4434C16.4062 27.4434 17.25 27.6777 18.375 28.1465C19.875 28.4277 20.625 28.709 20.625 28.9902C20.625 30.1152 19.7812 30.7715 18.0938 30.959C17.25 31.334 15.8906 31.5684 14.0156 31.6621L13.4531 31.5215L13.1719 31.6621C11.7656 31.6621 10.2656 31.0527 8.67188 29.834C7.45312 28.8027 6.42188 27.6309 5.57812 26.3184C5.39062 26.4121 5.20312 26.9746 5.01562 28.0059C5.20312 28.0996 5.29688 28.1465 5.29688 28.1465L5.01562 28.2871L5.29688 29.4121C5.29688 29.6934 5.0625 29.9277 4.59375 30.1152H4.3125C4.21875 30.1152 4.03125 29.6934 3.75 28.8496L3.89062 28.2871C3.79688 26.9746 3.75 25.8965 3.75 25.0527C3.75 24.959 3.79688 24.4434 3.89062 23.5059H3.75L3.89062 23.3652V22.2402C3.89062 21.584 4.21875 21.2559 4.875 21.2559ZM11.9062 22.2402C14.3438 22.9902 15.7031 23.4121 15.9844 23.5059V23.9277C15.7969 24.3027 15.4688 24.4902 15 24.4902H14.0156C12.0469 24.3027 11.0625 23.834 11.0625 23.084V22.9434C11.3438 22.4746 11.625 22.2402 11.9062 22.2402ZM39.0156 2.97461H39.2969C39.2969 3.16211 39.4844 3.34961 39.8594 3.53711V4.24023C39.8594 4.80273 39.6719 5.64648 39.2969 6.77148L39.4375 6.91211H39.5781C39.7656 6.91211 40.1406 6.86523 40.7031 6.77148C42.2031 7.14648 43.3281 7.84961 44.0781 8.88086L44.2188 9.44336C44.125 10.5684 44.0781 11.4121 44.0781 11.9746C44.0781 12.2559 44.125 12.3965 44.2188 12.3965C44.125 13.1465 44.0312 13.8496 43.9375 14.5059V14.7871H44.0781L47.7344 13.8027C49.0469 13.1465 49.7031 12.5371 49.7031 11.9746L49.5625 11.2715V10.8496C49.5625 8.88086 49.8438 7.89648 50.4062 7.89648C51.0625 8.27148 51.3906 8.69336 51.3906 9.16211V9.86523C51.3906 10.1465 51.3438 10.5684 51.25 11.1309C51.3438 11.2246 51.3906 11.3652 51.3906 11.5527C51.2031 11.5527 51.1094 11.5996 51.1094 11.6934V11.9746H51.25C51.4375 11.9746 51.9531 11.6934 52.7969 11.1309C53.4531 11.1309 53.7812 11.5059 53.7812 12.2559C53.7812 12.4434 52.9844 13.0527 51.3906 14.084V14.5059C51.3906 14.6934 51.3906 14.834 51.3906 14.9277C51.2969 15.1152 51.25 15.3496 51.25 15.6309C51.25 15.7246 51.2969 15.8652 51.3906 16.0527L52.6562 15.7715L52.7969 16.1934C52.7969 16.5684 52.2812 17.2246 51.25 18.1621L51.3906 19.4277V19.709C51.3906 19.8965 51.3438 20.2246 51.25 20.6934C51.3438 20.8809 51.3906 21.0684 51.3906 21.2559C51.2969 21.4434 51.2031 21.5371 51.1094 21.5371L51.3906 23.6465C51.2031 24.209 51.1094 24.7246 51.1094 25.1934V26.5996C50.5469 27.3496 50.0312 27.7246 49.5625 27.7246C48.4375 27.4434 46.9375 26.5996 45.0625 25.1934C44.875 24.6309 44.5469 24.3496 44.0781 24.3496L43.9375 24.6309V25.1934C43.9375 25.6621 43.9844 26.2246 44.0781 26.8809L43.5156 29.5527C43.0469 30.0215 42.7188 30.2559 42.5312 30.2559C42.1562 30.2559 41.5469 29.834 40.7031 28.9902C40.7031 28.5215 41.0781 28.1465 41.8281 27.8652L41.9688 27.3027V25.1934C41.9688 24.5371 41.9219 23.834 41.8281 23.084C41.9219 22.8965 41.9688 22.3809 41.9688 21.5371H41.8281C41.3594 21.6309 40.8906 22.4277 40.4219 23.9277C39.9531 23.9277 39.5312 24.3496 39.1562 25.1934C37.4688 27.7246 35.9688 29.3652 34.6562 30.1152C34.2812 30.0215 34.0938 29.7871 34.0938 29.4121C34.0938 29.4121 34.6094 28.7559 35.6406 27.4434C36.2031 27.0684 36.5781 26.3652 36.7656 25.334C37.5156 24.7715 38.2656 23.6934 39.0156 22.0996H38.5938C38.5938 22.5684 37.5625 23.5059 35.5 24.9121L35.0781 25.1934C34.1406 25.0996 33.6719 24.8184 33.6719 24.3496H33.3906C32.7344 26.4121 32.2188 27.6309 31.8438 28.0059C31.0938 28.4746 30.6719 28.709 30.5781 28.709C29.9219 28.4277 29.5938 28.0059 29.5938 27.4434C29.5938 25.9434 29.7812 24.9121 30.1562 24.3496V23.084C30.5312 21.3027 30.7188 20.1777 30.7188 19.709V17.8809C30.7188 17.7871 30.5781 17.5527 30.2969 17.1777H29.3125C29.2188 17.1777 29.1719 17.2715 29.1719 17.459C29.0781 17.2715 28.9844 17.1777 28.8906 17.1777C28.4219 17.5527 27.7188 17.834 26.7812 18.0215H26.6406C26.4531 17.6465 26.3594 17.3184 26.3594 17.0371C26.4531 16.7559 27.4844 16.2402 29.4531 15.4902C29.7344 15.584 29.9688 15.6309 30.1562 15.6309C30.1562 15.5371 30.2031 15.4902 30.2969 15.4902H30.5781C31.9844 16.4277 32.6875 17.5059 32.6875 18.7246C32.5938 19.0996 32.5469 19.4277 32.5469 19.709V19.8496C32.5469 20.2246 32.5938 20.459 32.6875 20.5527C32.5 21.209 32.4062 21.7246 32.4062 22.0996L32.6875 22.2402C32.6875 22.0527 33.1562 20.5996 34.0938 17.8809C34.0938 17.0371 34.5156 15.7715 35.3594 14.084L35.5 13.3809C35.4062 12.7246 35.3594 12.3965 35.3594 12.3965L34.6562 12.5371L34.2344 11.9746V11.834C34.9844 11.3652 35.3594 10.6152 35.3594 9.58398C35.9219 9.49023 36.625 8.45898 37.4688 6.49023C37.9375 5.74023 38.1719 4.70898 38.1719 3.39648L39.0156 2.97461ZM27.9062 8.17773H28.0469C28.4219 8.17773 29.0312 8.36523 29.875 8.74023C29.875 8.74023 29.9688 8.74023 30.1562 8.74023C30.25 8.74023 30.3438 8.74023 30.4375 8.74023C30.9062 8.74023 31.2812 8.74023 31.5625 8.74023C31.75 8.74023 31.8438 8.83398 31.8438 9.02148H31.9844L32.6875 8.88086L33.1094 9.58398L32.6875 10.4277H32.2656L31.9844 10.1465H30.7188C28.4688 10.1465 27.3438 9.77148 27.3438 9.02148V8.74023C27.3438 8.45898 27.5312 8.27148 27.9062 8.17773ZM37.4688 10.1465V10.2871C37.4688 10.6621 37.6094 11.0371 37.8906 11.4121C38.3594 11.4121 39.3438 11.084 40.8438 10.4277H40.9844L41.9688 11.5527C41.9688 12.1152 41.5 13.1934 40.5625 14.7871C40.75 15.4434 40.9375 15.9121 41.125 16.1934L40.9844 16.8965V17.5996H41.2656C41.7344 17.5996 42.1562 15.4434 42.5312 11.1309V10.709C42.5312 9.39648 41.5 8.74023 39.4375 8.74023C38.3125 8.92773 37.75 9.25586 37.75 9.72461C37.5625 9.72461 37.4688 9.86523 37.4688 10.1465ZM37.1875 15.209C37.1875 16.1465 37.3281 16.6152 37.6094 16.6152H37.75C38.5938 15.6777 39.2031 14.7402 39.5781 13.8027V12.8184L39.4375 12.6777C37.9375 13.4277 37.1875 14.2715 37.1875 15.209ZM45.0625 16.7559H44.9219C44.5469 16.5684 44.2656 16.4746 44.0781 16.4746C43.9844 16.6621 43.8438 17.3652 43.6562 18.584C43.75 19.8965 43.8906 20.5527 44.0781 20.5527H44.2188C45.3438 19.5215 46.7969 18.6777 48.5781 18.0215L49.4219 17.1777V15.6309C49.4219 15.5371 49.2344 15.4434 48.8594 15.3496H48.5781C48.1094 15.8184 47.4062 16.0996 46.4688 16.1934C46.4688 16.5684 46 16.7559 45.0625 16.7559ZM36.9062 18.7246V19.2871L36.7656 20.6934H37.1875C37.75 20.0371 38.1719 19.2402 38.4531 18.3027C38.3594 18.209 38.2656 18.1621 38.1719 18.1621C37.7031 18.5371 37.2812 18.7246 36.9062 18.7246ZM35.0781 19.2871C35.0781 19.8496 34.75 20.7402 34.0938 21.959C34.0938 22.6152 33.9062 23.1777 33.5312 23.6465V23.7871C33.5312 23.8809 33.625 23.9277 33.8125 23.9277C35.0312 22.8965 35.6406 22.0996 35.6406 21.5371C35.3594 21.2559 35.2188 20.6465 35.2188 19.709V19.2871H35.0781ZM45.625 22.5215C47.2188 24.3027 48.2969 25.1934 48.8594 25.1934H49.1406C49.1406 24.4434 49.2812 23.9277 49.5625 23.6465L49.4219 22.9434L49.5625 19.4277H49.1406L47.1719 20.6934C47.1719 20.9746 46.6562 21.4902 45.625 22.2402V22.5215ZM73.2969 14.084C73.9531 14.084 74.4219 14.5996 74.7031 15.6309C74.4219 16.1934 73.0625 16.709 70.625 17.1777C66.3125 17.7402 62.9844 18.3496 60.6406 19.0059C59.3281 19.6621 58.625 19.9902 58.5312 19.9902C58.1562 19.9902 57.875 19.6621 57.6875 19.0059C57.6875 18.3496 58.5781 17.6934 60.3594 17.0371C62.8906 16.1934 65.8906 15.584 69.3594 15.209C71.2344 14.7402 72.5469 14.3652 73.2969 14.084ZM97.5938 0.443359C98.25 0.630859 98.5781 0.912109 98.5781 1.28711C98.5781 2.41211 98.1094 4.28711 97.1719 6.91211C97.2656 7.09961 97.5469 7.19336 98.0156 7.19336C98.8594 6.25586 100.172 5.59961 101.953 5.22461C102.609 5.22461 103.078 5.41211 103.359 5.78711V6.49023C103.359 7.14648 102 9.81836 99.2812 14.5059V14.6465C99.2812 15.0215 100.5 15.209 102.938 15.209C103.5 15.209 104.203 15.0215 105.047 14.6465L106.453 15.6309C106.453 16.2871 106.125 16.8027 105.469 17.1777C101.344 16.8965 98.9531 16.7559 98.2969 16.7559C96.3281 19.5684 93.4688 22.8027 89.7188 26.459C88.3125 27.0215 86.2969 28.4746 83.6719 30.8184L83.1094 30.959C82.5469 30.959 82.2656 30.6309 82.2656 29.9746C83.3906 29.1309 83.9531 28.5215 83.9531 28.1465C84.0469 27.3965 84.0938 26.5996 84.0938 25.7559V25.1934C84.0938 24.6309 84.0469 24.0215 83.9531 23.3652C83.9531 23.3652 84 23.3652 84.0938 23.3652C84 22.709 83.9531 22.334 83.9531 22.2402C83.9531 21.1152 84 19.8965 84.0938 18.584L82.6875 11.1309C82.6875 10.7559 83.0156 10.5684 83.6719 10.5684H83.9531C84.6094 10.5684 84.9375 11.5527 84.9375 13.5215L85.2188 15.4902H85.3594C85.3594 15.1152 86.0625 14.2246 87.4688 12.8184C89.8125 9.44336 91.0312 7.33398 91.125 6.49023L90.7031 6.20898C89.1094 7.05273 87.7031 7.56836 86.4844 7.75586C85.4531 7.56836 84.9375 7.28711 84.9375 6.91211C84.9375 6.25586 85.3594 5.83398 86.2031 5.64648C87.0469 5.45898 88.875 4.99023 91.6875 4.24023C92.7188 4.42773 93.2344 4.80273 93.2344 5.36523C93.2344 6.58398 92.1094 8.92773 89.8594 12.3965V12.6777C90.1406 13.0527 90.2812 13.709 90.2812 14.6465V15.6309C90.1875 16.3809 90.1406 16.7559 90.1406 16.7559V17.7402C90.4219 17.7402 91.1719 17.2246 92.3906 16.1934C93.1406 16.4746 93.6094 16.7559 93.7969 17.0371C93.6094 17.8809 92.3906 18.959 90.1406 20.2715C89.8594 20.5527 89.7188 21.2559 89.7188 22.3809V23.5059C89.8125 23.5059 89.8594 23.5527 89.8594 23.6465C89.9531 23.6465 90.4688 23.084 91.4062 21.959C92.8125 21.3965 94.3125 19.6621 95.9062 16.7559V16.6152C94.6875 16.6152 93.7031 16.0527 92.9531 14.9277C93.2344 14.5527 93.4219 14.3652 93.5156 14.3652C93.9844 14.3652 95.1094 14.459 96.8906 14.6465H97.0312C97.875 13.8965 98.7188 12.5371 99.5625 10.5684C99.75 10.4746 100.219 9.49023 100.969 7.61523V7.47461C100.594 7.47461 99.1875 8.13086 96.75 9.44336C96.0938 9.44336 95.625 10.0059 95.3438 11.1309C95.25 11.1309 94.9219 11.7402 94.3594 12.959C93.7969 12.959 93.4688 12.7715 93.375 12.3965C93.375 12.1152 94.125 10.3809 95.625 7.19336L96.6094 4.38086C96.6094 4.28711 96.6562 3.49023 96.75 1.99023C96.75 0.958984 97.0312 0.443359 97.5938 0.443359ZM85.3594 15.6309V16.7559C85.6406 18.9121 85.7344 21.3027 85.6406 23.9277C85.7344 24.209 85.7812 24.6309 85.7812 25.1934C85.7812 25.6621 85.7344 26.2715 85.6406 27.0215C86.5781 27.0215 87.1875 26.2715 87.4688 24.7715C87.6562 20.084 87.7969 17.5996 87.8906 17.3184C87.9844 17.0371 88.0312 16.8027 88.0312 16.6152V15.9121C88.0312 15.7246 87.9375 15.6309 87.75 15.6309H87.6094C87.2344 16.2871 86.9531 16.6152 86.7656 16.6152C86.0156 16.334 85.6406 16.0059 85.6406 15.6309H85.3594ZM103.5 19.4277C104.25 19.4277 104.672 19.8496 104.766 20.6934C104.766 22.0059 104.297 23.5996 103.359 25.4746C103.547 25.7559 103.641 25.9902 103.641 26.1777C103.453 26.834 102.797 27.5371 101.672 28.2871C100.922 28.4746 100.5 28.5684 100.406 28.5684C99.6562 28.3809 99.2344 28.2871 99.1406 28.2871C98.9531 29.9746 98.625 30.8184 98.1562 30.8184C97.5938 30.6309 97.3125 30.4434 97.3125 30.2559V29.9746C97.3125 29.2246 97.4062 28.8496 97.5938 28.8496C97.5938 27.6309 97.2656 25.4277 96.6094 22.2402C96.5156 21.8652 96.4688 21.4902 96.4688 21.1152C96.5625 20.5527 96.7969 20.2715 97.1719 20.2715C97.9219 20.2715 98.3906 20.9746 98.5781 22.3809C98.8594 24.7246 99 25.9902 99 26.1777V27.0215H99.1406C100.828 25.9902 102.141 24.4434 103.078 22.3809V21.2559C102.984 21.0684 102.656 20.9746 102.094 20.9746C100.688 21.5371 99.9375 21.8184 99.8438 21.8184C99.2812 21.8184 98.8594 21.4434 98.5781 20.6934C99.0469 19.9434 100.688 19.5215 103.5 19.4277ZM128.078 3.25586C129.578 3.25586 130.516 3.58398 130.891 4.24023C131.359 4.80273 131.594 7.14648 131.594 11.2715V11.834C131.594 12.209 131.594 12.6777 131.594 13.2402V14.9277V15.209V16.4746V21.2559C131.594 21.4434 131.594 21.6309 131.594 21.8184C131.594 22.0059 131.594 22.1465 131.594 22.2402V24.4902C131.594 27.1152 131.359 28.4277 130.891 28.4277L131.312 28.5684V29.1309C131.312 29.6934 131.172 30.0215 130.891 30.1152H130.188C130.094 30.1152 129.859 29.8809 129.484 29.4121C129.484 28.7559 129.484 28.1934 129.484 27.7246V27.4434C129.484 26.4121 129.484 25.8027 129.484 25.6152V25.0527C129.484 24.6777 129.484 24.0684 129.484 23.2246L129.906 22.6621V22.2402H129.484C129.203 22.6152 128.641 23.1309 127.797 23.7871L127.094 23.9277C127 23.9277 126.953 23.8809 126.953 23.7871L126.25 23.9277C125.125 23.7402 124.516 23.6465 124.422 23.6465L123.859 23.7871C123.859 23.5996 123.625 21.3027 123.156 16.8965V16.7559V16.0527V14.9277H122.875C121.094 17.7402 120.203 19.3809 120.203 19.8496V20.4121V21.3965C120.016 24.0215 119.781 25.334 119.5 25.334C119.688 25.4277 119.781 25.5215 119.781 25.6152C119.781 26.5527 119.406 27.0215 118.656 27.0215C118.656 26.9277 118.422 26.7402 117.953 26.459V25.8965C118.328 25.334 118.516 24.7246 118.516 24.0684L118.234 23.6465C118.516 23.3652 118.703 22.5215 118.797 21.1152H118.656C116.219 23.9277 114.531 25.334 113.594 25.334C112.938 24.7715 112.609 24.3496 112.609 24.0684C114.109 20.4121 114.859 17.7402 114.859 16.0527C115.141 16.0527 115.562 15.2559 116.125 13.6621C115.469 13.9434 115 14.084 114.719 14.084H114.156C113.688 13.8027 113.406 13.5215 113.312 13.2402V12.8184C113.312 12.5371 115.141 11.834 118.797 10.709C118.891 9.86523 118.938 9.44336 118.938 9.44336V9.02148V5.08398C118.938 4.33398 119.125 3.77148 119.5 3.39648C120.156 3.67773 120.484 4.19336 120.484 4.94336L120.344 5.50586C120.344 5.97461 120.391 6.39648 120.484 6.77148C120.391 7.42773 120.344 8.03711 120.344 8.59961V9.02148V9.58398C121.844 9.58398 122.641 9.06836 122.734 8.03711H122.875H123.297C123.578 8.03711 123.859 8.27148 124.141 8.74023C123.578 10.4277 122.547 11.2715 121.047 11.2715V11.9746C120.578 13.9434 120.344 15.209 120.344 15.7715H120.484C122.078 13.6152 122.969 12.3027 123.156 11.834C123.625 11.7402 123.906 11.6934 124 11.6934C124.75 11.6934 125.125 12.4902 125.125 14.084V14.5059C125.125 14.9746 125.031 15.7246 124.844 16.7559H125.266L128.078 16.0527H128.641C129.016 16.334 129.203 16.5215 129.203 16.6152V16.7559C129.203 17.4121 128.453 19.1934 126.953 22.0996H127.656C127.656 22.0996 127.703 22.0996 127.797 22.0996C128.547 21.1621 129.016 20.6934 129.203 20.6934C129.766 20.0371 129.859 19.0059 129.484 17.5996V16.7559V15.209C129.484 8.27148 129.25 4.80273 128.781 4.80273H128.078C127.984 4.80273 127.891 4.84961 127.797 4.94336L127.516 4.80273C127.234 4.89648 127 4.94336 126.812 4.94336H126.531C125.781 4.75586 125.359 4.47461 125.266 4.09961V3.95898C125.266 3.58398 126.203 3.34961 128.078 3.25586ZM126.25 10.2871L126.812 10.4277H128.359C128.922 10.4277 129.297 10.709 129.484 11.2715L129.344 11.9746L129.484 12.2559C129.109 13.9434 128.641 14.7871 128.078 14.7871C128.078 14.8809 128.031 14.9277 127.938 14.9277C127.844 14.459 127.797 14.084 127.797 13.8027V13.6621C127.984 13.3809 128.078 12.8652 128.078 12.1152H127.516C126.203 12.1152 125.453 11.7871 125.266 11.1309V10.709C125.266 10.5215 125.594 10.3809 126.25 10.2871ZM116.828 13.5215C117.297 13.5215 117.531 13.6152 117.531 13.8027V14.084C116.875 14.9277 115.984 17.834 114.859 22.8027H115.141C117.672 20.2715 118.938 18.7246 118.938 18.1621L118.797 17.459C118.797 16.9902 118.844 16.6621 118.938 16.4746L118.797 15.6309C118.891 14.3184 118.938 13.334 118.938 12.6777C118.844 12.584 118.797 12.4902 118.797 12.3965H118.656C118.375 12.584 117.766 12.9121 116.828 13.3809V13.5215ZM125.266 18.584H124.562V20.2715V20.6934V22.0996H125.125C125.875 21.7246 126.391 20.834 126.672 19.4277C126.859 19.4277 126.953 19.0996 126.953 18.4434C126.016 18.5371 125.453 18.584 125.266 18.584ZM152.234 2.97461C152.891 2.97461 153.312 4.70898 153.5 8.17773V8.45898C154.156 7.14648 154.625 6.49023 154.906 6.49023C155.281 6.58398 155.469 6.72461 155.469 6.91211C155.469 7.94336 154.859 9.34961 153.641 11.1309L153.5 11.9746C153.594 12.4434 153.641 12.8652 153.641 13.2402H153.781C154.812 13.0527 155.469 12.959 155.75 12.959H155.891C156.266 12.959 156.453 13.1934 156.453 13.6621C156.453 14.5059 155.609 15.3496 153.922 16.1934H153.641L153.5 16.7559V17.0371C153.5 17.0371 153.547 17.0371 153.641 17.0371C153.547 17.4121 153.5 17.9746 153.5 18.7246C153.594 19.0996 153.688 19.2871 153.781 19.2871C156.969 18.1621 158.703 17.2715 158.984 16.6152H159.406C159.781 16.6152 159.969 17.0371 159.969 17.8809C159.969 18.4434 157.812 19.5684 153.5 21.2559V23.3652C153.5 24.209 153.5 25.2402 153.5 26.459V27.0215C153.5 27.1152 153.5 27.1621 153.5 27.1621C153.5 28.0059 153.5 28.6621 153.5 29.1309V29.4121C153.5 29.5059 153.5 29.5527 153.5 29.5527C153.5 30.4902 153.172 30.959 152.516 30.959C152.141 30.959 151.906 30.7246 151.812 30.2559C151.906 27.6309 151.953 24.8652 151.953 21.959L151.812 21.8184C150.688 21.9121 148.344 22.8965 144.781 24.7715C144.312 25.6152 143.891 26.0371 143.516 26.0371C143.422 26.0371 143.188 25.7559 142.812 25.1934C142.812 24.3496 144.219 23.2246 147.031 21.8184C149.562 20.6934 151.156 20.1309 151.812 20.1309C152 19.6621 152.094 19.334 152.094 19.1465V16.1934C152.094 16.0996 152.047 16.0527 151.953 16.0527C151.672 16.0527 150.172 16.6621 147.453 17.8809C147.453 17.8809 147.406 17.9277 147.312 18.0215C147.031 17.834 146.844 17.7402 146.75 17.7402V17.5996C146.75 16.5684 147.219 15.9121 148.156 15.6309C149.188 14.5996 149.703 13.9434 149.703 13.6621V13.3809C149.141 11.3184 148.812 9.91211 148.719 9.16211C148.719 8.88086 149 8.41211 149.562 7.75586C149.938 7.75586 150.312 8.92773 150.688 11.2715C150.781 12.209 150.875 12.6777 150.969 12.6777C151.719 12.0215 152.094 10.7559 152.094 8.88086L151.531 3.95898C151.812 3.30273 152.047 2.97461 152.234 2.97461ZM142.953 7.05273C143.328 7.05273 143.609 7.33398 143.797 7.89648C142.203 11.3652 141.406 13.2402 141.406 13.5215C142.344 13.5215 142.812 15.0684 142.812 18.1621V20.2715L142.953 20.834C142.859 21.0215 142.766 22.8965 142.672 26.459C140.609 28.0527 139.859 27.0684 140.422 23.5059C141.078 19.9434 141.219 18.5371 140.844 19.2871L141.406 18.1621C140.844 16.2871 140.469 14.6465 140.281 13.2402L140.844 14.7871C140 16.0996 138.875 18.0684 137.469 20.6934C137.375 20.6934 137 20.7871 136.344 20.9746V20.2715C138.688 16.5215 140.141 13.5215 140.703 11.2715C141.078 10.8965 141.781 9.53711 142.812 7.19336L142.953 7.05273ZM153.641 15.209V15.6309H153.922C154.391 15.4434 154.625 15.1621 154.625 14.7871H154.484C153.922 14.9746 153.641 15.1152 153.641 15.209ZM178.5 24.209C179.156 24.209 179.484 24.584 179.484 25.334C178.078 28.8965 176.953 30.7715 176.109 30.959C176.016 30.959 175.969 30.8652 175.969 30.6777V30.1152L176.531 29.2715L176.391 28.709C176.859 28.5215 177.141 27.2559 177.234 24.9121C177.703 24.4434 178.125 24.209 178.5 24.209ZM195.906 2.13086C197.219 2.50586 198.016 2.69336 198.297 2.69336C198.578 2.50586 198.812 2.41211 199 2.41211C199.469 2.50586 199.75 2.55273 199.844 2.55273C200.219 2.45898 200.406 2.41211 200.406 2.41211C200.781 2.59961 201.062 2.69336 201.25 2.69336C201.25 3.53711 200.594 3.95898 199.281 3.95898C198.625 3.95898 197.875 3.95898 197.031 3.95898H196.188C195.25 3.95898 194.781 3.63086 194.781 2.97461C194.781 2.50586 195.156 2.22461 195.906 2.13086ZM200.688 5.64648C200.875 5.74023 200.969 5.88086 200.969 6.06836C200.969 6.25586 200.359 7.33398 199.141 9.30273C198.109 11.459 197.594 13.0527 197.594 14.084H198.156C198.906 13.4277 199.75 12.3496 200.688 10.8496C200.781 10.7559 200.969 10.709 201.25 10.709H201.672C202.047 10.709 202.281 10.8027 202.375 10.9902C202.281 11.6465 201.578 12.7715 200.266 14.3652V14.6465H200.688C201.625 14.6465 202.094 14.7871 202.094 15.0684C201.719 16.0996 201.109 16.8965 200.266 17.459C199.891 18.0215 199.703 18.4434 199.703 18.7246V19.709C199.703 19.8027 199.797 19.8496 199.984 19.8496C202.609 18.8184 203.922 18.1152 203.922 17.7402V14.7871C203.922 14.6934 203.875 14.6465 203.781 14.6465L203.922 14.3652V13.9434L203.078 13.0996V12.959C203.547 12.3027 204.484 10.9434 205.891 8.88086C205.984 8.88086 206.406 8.36523 207.156 7.33398C207.344 7.33398 207.812 6.86523 208.562 5.92773H208.984V6.06836L209.125 5.92773C209.688 5.92773 209.969 6.25586 209.969 6.91211C209.969 7.19336 209.453 7.70898 208.422 8.45898C206.172 10.8027 205.047 12.1152 205.047 12.3965V12.5371C205.422 12.5371 205.703 13.1465 205.891 14.3652C205.891 14.459 205.891 14.6934 205.891 15.0684V15.9121C205.891 17.7871 205.75 19.0059 205.469 19.5684L205.609 19.8496C205.516 19.9434 205.469 20.084 205.469 20.2715L205.609 20.834C205.234 22.334 204.953 23.1309 204.766 23.2246C204.578 23.2246 204.438 23.2715 204.344 23.3652C204.156 23.1777 203.969 23.084 203.781 23.084V23.3652V23.7871C203.781 24.3496 203.453 24.6309 202.797 24.6309C201.859 23.5996 201.25 22.7559 200.969 22.0996C201.156 21.7246 201.484 21.5371 201.953 21.5371C202.703 21.5371 203.312 21.959 203.781 22.8027L204.062 20.834C203.969 20.6465 203.922 20.3184 203.922 19.8496C201.203 21.0684 199.844 21.9121 199.844 22.3809C199.844 22.5684 199.797 22.7559 199.703 22.9434C199.797 23.4121 199.844 23.7402 199.844 23.9277C199.844 24.1152 199.797 24.3496 199.703 24.6309C199.797 25.0996 199.844 25.4277 199.844 25.6152L199.703 26.459L199.844 27.0215C199.562 28.8965 199.094 29.834 198.438 29.834C197.875 29.834 197.547 29.5996 197.453 29.1309C197.547 28.9434 197.594 28.7559 197.594 28.5684V26.3184C197.594 26.2246 197.547 26.1777 197.453 26.1777L197.594 26.0371V24.7715C197.594 23.459 197.5 22.8027 197.312 22.8027L195.062 23.9277C195.344 24.1152 195.578 24.8652 195.766 26.1777C196.047 26.3652 196.375 26.7402 196.75 27.3027V27.584C196.656 27.7715 196.328 28.0059 195.766 28.2871C194.641 28.2871 193.797 27.1621 193.234 24.9121C193.141 24.8184 193.047 24.7715 192.953 24.7715C191.078 25.4277 189.719 25.8496 188.875 26.0371C188.312 25.8496 188.031 25.6152 188.031 25.334C188.031 24.7715 188.688 24.2559 190 23.7871C191.875 22.6621 193.469 21.6309 194.781 20.6934C194.781 20.5996 195.812 19.6621 197.875 17.8809C197.688 17.8809 197.078 18.1152 196.047 18.584C195.203 19.0527 194.594 19.2871 194.219 19.2871C193.75 18.9121 193.516 18.584 193.516 18.3027C193.516 18.0215 194.125 17.5996 195.344 17.0371C195.531 16.8496 195.719 15.4902 195.906 12.959C196.469 11.2715 196.891 9.95898 197.172 9.02148V8.88086H197.031C197.031 8.88086 196.469 9.20898 195.344 9.86523C194.688 10.1465 194.078 10.2871 193.516 10.2871C193.328 10.2871 193.141 9.95898 192.953 9.30273C192.953 8.83398 193.75 8.36523 195.344 7.89648C197.219 6.77148 199 6.02148 200.688 5.64648ZM213.906 9.86523C214.281 9.86523 214.562 10.2402 214.75 10.9902C214.188 11.5527 213.297 12.209 212.078 12.959C211.703 13.2402 211.516 13.4277 211.516 13.5215C211.703 13.8027 211.797 13.9902 211.797 14.084C211.609 15.1152 211.422 17.3652 211.234 20.834C211.234 21.0215 211.281 21.4434 211.375 22.0996C211.188 22.9434 211 24.1152 210.812 25.6152L211.094 26.0371C210.906 27.7246 210.625 28.8027 210.25 29.2715L210.531 29.5527C210.344 30.4902 209.969 30.959 209.406 30.959L208.984 30.8184V30.6777C208.984 30.4902 209.125 30.1152 209.406 29.5527C209.312 28.709 209.266 27.959 209.266 27.3027V27.0215C209.266 26.459 209.312 25.9902 209.406 25.6152L209.266 25.334C209.359 21.7715 209.547 18.1152 209.828 14.3652H209.688C209.5 14.3652 208.938 14.5059 208 14.7871C207.719 14.7871 207.344 14.459 206.875 13.8027V13.5215C206.875 13.1465 208 12.6777 210.25 12.1152C210.719 11.7402 211.422 11.3652 212.359 10.9902C212.641 10.6152 213.156 10.2402 213.906 9.86523ZM195.625 21.5371C195.719 21.6309 195.812 21.6777 195.906 21.6777C196.938 21.3965 197.453 21.1152 197.453 20.834V20.1309H197.031C196.281 20.6934 195.812 21.1621 195.625 21.5371ZM232.156 4.94336H232.438C233 5.22461 233.281 5.45898 233.281 5.64648C232.719 8.74023 232.438 10.9434 232.438 12.2559C232.531 12.4434 232.578 12.5371 232.578 12.5371H232.438C232.906 14.0371 233.469 14.7871 234.125 14.7871H235.812H236.375H236.797C238.109 14.9746 239.141 15.3965 239.891 16.0527C240.078 16.4277 240.312 16.8496 240.594 17.3184C240.594 17.4121 240.594 17.459 240.594 17.459V18.4434V19.4277C240.594 21.1152 239.984 22.9902 238.766 25.0527C238.109 25.8965 237.5 26.5996 236.938 27.1621C236.281 28.0059 235.484 28.6621 234.547 29.1309H234.406C233.938 29.3184 233.609 29.4121 233.422 29.4121H233.281C233.188 29.4121 233.141 29.3184 233.141 29.1309L232.859 29.4121C230.891 28.5684 229.906 27.5371 229.906 26.3184C229.812 26.3184 229.719 26.084 229.625 25.6152V25.1934C229.625 24.1621 230.562 22.709 232.438 20.834C233 19.9902 233.469 19.4746 233.844 19.2871C233.844 19.0059 234.641 18.2559 236.234 17.0371H236.375C236.656 17.0371 236.844 17.3184 236.938 17.8809C236.844 17.8809 236.281 18.5371 235.25 19.8496C235.062 19.8496 234.688 20.2246 234.125 20.9746C233.188 21.7246 232.719 22.1465 232.719 22.2402C232.719 22.5215 232.25 23.084 231.312 23.9277L231.172 24.7715L231.312 25.0527L231.172 25.7559V26.1777C231.828 27.209 232.391 27.7246 232.859 27.7246C233.047 27.8184 233.234 27.8652 233.422 27.8652C237.172 25.4277 239.047 22.1465 239.047 18.0215V17.8809C238.203 16.6621 236.891 16.0527 235.109 16.0527H234.688C232.531 15.3965 231.453 14.6934 231.453 13.9434C231.359 13.9434 231.219 13.709 231.031 13.2402C231.031 12.8652 231.031 12.6309 231.031 12.5371C231.031 12.3496 230.984 12.2559 230.891 12.2559H230.609C230.609 12.3496 230 13.334 228.781 15.209C228.781 15.7715 228.5 16.4746 227.938 17.3184C228.031 17.6934 228.125 18.1621 228.219 18.7246L228.078 19.1465L228.219 19.5684C228.031 22.2871 227.75 24.4902 227.375 26.1777C227.188 27.209 226.812 27.7246 226.25 27.7246H225.969C224.375 26.8809 223.578 25.8027 223.578 24.4902V23.9277C223.578 22.6152 224.375 20.5527 225.969 17.7402L226.109 16.6152V16.334L225.547 16.0527H224.984L222.875 16.7559L222.031 16.0527V15.9121C222.031 15.4434 222.875 15.0684 224.562 14.7871C224.656 14.7871 224.75 14.7871 224.844 14.7871H224.984C225.922 14.7871 226.578 14.9746 226.953 15.3496C227.703 14.5059 228.5 13.4277 229.344 12.1152C229.812 11.3652 230.281 10.5215 230.75 9.58398C230.844 9.58398 230.938 9.39648 231.031 9.02148V8.17773C231.031 7.80273 231.219 7.19336 231.594 6.34961L231.453 6.06836C231.828 5.41211 232.062 5.03711 232.156 4.94336ZM218.797 7.89648H219.641C220.297 8.17773 221.656 8.50586 223.719 8.88086C224 9.06836 224.141 9.30273 224.141 9.58398V9.72461C224.141 9.81836 223.906 10.0059 223.438 10.2871C223.25 10.0059 223.156 9.86523 223.156 9.86523H222.453C222.359 9.86523 222.172 9.81836 221.891 9.72461L220.766 9.86523L220.625 9.58398L219.359 9.86523C218.984 9.86523 218.656 9.34961 218.375 8.31836L218.797 7.89648ZM219.922 15.6309H220.344C220.625 15.6309 220.906 15.7715 221.188 16.0527C220.906 17.2715 220.625 20.459 220.344 25.6152C220.344 25.709 220.344 25.7559 220.344 25.7559V26.459V27.1621C220.344 27.4434 220.344 27.7715 220.344 28.1465C220.344 28.4277 220.344 28.6621 220.344 28.8496C220.344 28.9434 220.344 29.0371 220.344 29.1309C220.156 29.4121 219.969 29.6465 219.781 29.834C219.5 29.834 219.172 29.3652 218.797 28.4277C218.797 28.2402 218.891 28.0996 219.078 28.0059C218.891 27.4434 218.797 26.9746 218.797 26.5996V26.1777L219.078 25.334L218.797 25.0527L219.078 24.9121L218.797 24.209C218.984 24.209 219.078 24.1152 219.078 23.9277C218.891 23.9277 218.797 23.8809 218.797 23.7871C218.797 23.6934 218.797 23.4121 218.797 22.9434V22.3809C219.266 17.8809 219.641 15.6309 219.922 15.6309ZM225.547 21.959V22.3809C225.266 22.3809 225.125 22.8965 225.125 23.9277L225.406 24.209C225.219 24.3027 225.125 24.4902 225.125 24.7715C225.5 25.334 225.781 25.6152 225.969 25.6152C226.25 23.3652 226.484 22.2402 226.672 22.2402H226.953C226.766 22.0527 226.672 21.8652 226.672 21.6777C226.672 21.584 226.672 21.5371 226.672 21.5371V20.834V19.2871L225.547 21.5371C225.547 21.5371 225.547 21.6777 225.547 21.959ZM267.562 0.0214844C267.938 0.0214844 268.219 0.302734 268.406 0.865234C268.406 7.14648 268.406 10.2871 268.406 10.2871C268.219 24.4434 267.938 31.0059 267.562 29.9746C268.312 29.3184 267.984 29.5527 266.578 30.6777C266.578 31.0527 266.297 31.2402 265.734 31.2402H263.766C261.984 31.2402 260.859 30.584 260.391 29.2715V28.8496C260.391 28.4746 260.438 28.2871 260.531 28.2871C260.812 28.2871 261.469 28.6621 262.5 29.4121C263.344 29.5996 264.094 29.6934 264.75 29.6934C266.344 30.4434 266.766 28.1465 266.016 22.8027C266.203 21.959 266.297 19.4277 266.297 15.209C266.297 15.1152 266.297 15.0684 266.297 15.0684V14.5059C266.109 11.7871 266.062 8.13086 266.156 3.53711C266.531 4.56836 266.672 5.08398 266.578 5.08398L266.719 4.38086C266.438 5.69336 266.297 4.52148 266.297 0.865234C266.297 0.396484 266.719 0.115234 267.562 0.0214844ZM253.078 0.865234C253.266 0.865234 253.641 1.09961 254.203 1.56836L252.234 6.91211C252.234 7.09961 253.547 7.66211 256.172 8.59961C257.391 8.59961 258 9.02148 258 9.86523C258 9.95898 257.766 10.1934 257.297 10.5684H256.594C256.219 10.5684 254.766 10.1465 252.234 9.30273H251.672C251.391 9.77148 250.5 11.5527 249 14.6465H249.281C252.562 12.959 254.719 12.1152 255.75 12.1152C256.781 12.4902 257.297 13.2402 257.297 14.3652C257.297 14.6465 256.922 16.0527 256.172 18.584V19.1465H256.594C257.906 17.3652 258.75 16.0996 259.125 15.3496C259.312 15.1621 259.969 13.8965 261.094 11.5527C261.094 11.5527 261.234 11.5059 261.516 11.4121C262.547 11.4121 263.062 12.3965 263.062 14.3652C262.688 14.6465 262.5 14.9277 262.5 15.209L262.781 16.0527C262.406 17.5527 261.984 18.3027 261.516 18.3027C260.859 18.0215 260.531 17.5996 260.531 17.0371C260.719 16.3809 260.812 15.8184 260.812 15.3496H260.531C260.062 15.7246 259.688 16.4277 259.406 17.459C258.375 18.209 257.531 19.334 256.875 20.834C254.344 24.209 252.984 25.9902 252.797 26.1777C252.422 26.1777 252.047 26.2246 251.672 26.3184C250.547 26.3184 249.984 25.2402 249.984 23.084C250.078 22.5215 250.125 22.0059 250.125 21.5371V20.9746C250.125 20.7871 250.078 20.5527 249.984 20.2715L250.406 16.4746C250.125 16.4746 249.891 16.5684 249.703 16.7559C248.859 16.4746 248.438 16.1934 248.438 15.9121C248.25 16.0059 247.078 17.8809 244.922 21.5371C244.266 21.8184 243.891 21.959 243.797 21.959V21.8184L243.375 21.959C243.281 21.959 243.094 21.8184 242.812 21.5371V21.3965C243.562 21.1152 244.734 19.0059 246.328 15.0684C247.547 14.2246 249.328 10.2402 251.672 3.11523C251.766 1.61523 252.234 0.865234 253.078 0.865234ZM252.234 15.4902V16.4746C252.141 17.3184 252.094 17.7871 252.094 17.8809L253.922 19.4277H254.203C254.859 17.1777 255.188 15.6309 255.188 14.7871V14.6465C255.188 14.459 255.141 14.3652 255.047 14.3652H254.484C252.984 14.834 252.234 15.209 252.234 15.4902ZM252.094 20.2715C251.906 20.5527 251.812 20.7402 251.812 20.834C251.812 20.9277 251.859 21.1152 251.953 21.3965C251.859 22.4277 251.812 23.3652 251.812 24.209L251.953 24.3496H252.094C252.188 24.3496 252.562 23.9746 253.219 23.2246V22.9434C253.031 22.5684 252.703 21.6777 252.234 20.2715H252.094ZM267.984 28.1465C268.172 28.1465 268.266 28.2871 268.266 28.5684V30.5371C268.078 31.0059 267.844 31.2402 267.562 31.2402H266.859C266.672 31.2402 266.578 31.1465 266.578 30.959V30.8184C266.578 30.3496 266.766 30.1152 267.141 30.1152V28.8496C267.141 28.6621 267.422 28.4277 267.984 28.1465ZM284.688 3.53711H284.828C285.578 3.53711 285.953 3.86523 285.953 4.52148C285.578 7.42773 285.391 9.30273 285.391 10.1465L285.672 10.4277H286.234C287.734 10.4277 289.75 9.25586 292.281 6.91211H292.562C292.75 6.91211 292.984 7.09961 293.266 7.47461V7.89648C292.797 8.55273 291.719 9.44336 290.031 10.5684V10.709C290.031 10.8965 290.172 11.0371 290.453 11.1309L289.75 14.5059L289.891 14.6465H290.453C290.734 13.709 291.203 13.2402 291.859 13.2402C292.047 13.334 292.234 13.6621 292.422 14.2246C291.953 15.1621 291.016 16.5215 289.609 18.3027C289.609 18.3965 289.469 19.2871 289.188 20.9746V21.2559C289.188 21.5371 291.109 21.8652 294.953 22.2402C295.328 22.4277 295.516 22.709 295.516 23.084C295.516 23.5527 295.141 23.8809 294.391 24.0684C292.234 23.5996 290.5 23.3652 289.188 23.3652C288.719 23.3652 288.484 25.2402 288.484 28.9902V29.2715C288.391 29.834 288.203 30.1621 287.922 30.2559H287.781C287.125 30.1621 286.797 29.834 286.797 29.2715C286.891 27.0215 287.031 24.9121 287.219 22.9434C286.844 22.7559 285.859 22.6152 284.266 22.5215C283.609 22.0527 283.281 21.7715 283.281 21.6777C283.281 21.584 283.328 21.2559 283.422 20.6934H284.125C284.875 20.6934 286.141 19.709 287.922 17.7402L288.484 11.6934H288.344C287.406 11.9746 286.609 12.1152 285.953 12.1152C284.453 12.0215 283.703 11.3652 283.703 10.1465C283.703 10.1465 283.703 9.67773 283.703 8.74023V8.45898C283.984 6.95898 284.125 6.11523 284.125 5.92773V4.66211C284.125 4.19336 284.312 3.81836 284.688 3.53711ZM279.062 6.34961C279.531 6.34961 279.766 6.67773 279.766 7.33398C279.016 10.334 278.312 12.4902 277.656 13.8027V13.9434C278.312 14.3184 278.734 14.9277 278.922 15.7715C278.922 17.6465 278.969 20.7871 279.062 25.1934C277.562 27.2559 276.906 26.5527 277.094 23.084V15.209H276.812C276.812 15.209 276.062 16.334 274.562 18.584C273.25 20.3652 272.5 21.2559 272.312 21.2559H272.031C272.031 21.0684 271.984 20.9746 271.891 20.9746L275.125 15.209C276.438 13.1465 277.469 10.4746 278.219 7.19336C278.312 6.63086 278.594 6.34961 279.062 6.34961ZM286.797 20.6934V20.834C286.797 20.9277 286.844 20.9746 286.938 20.9746H287.219C287.312 20.9746 287.406 20.8809 287.5 20.6934V20.4121C287.5 20.1309 287.453 19.9902 287.359 19.9902C287.266 19.9902 287.078 20.2246 286.797 20.6934ZM315.875 3.53711C316.438 3.53711 316.719 3.67773 316.719 3.95898C316.344 5.08398 315.922 7.05273 315.453 9.86523H315.875C316.062 9.86523 317.047 9.72461 318.828 9.44336H319.953C320.234 9.44336 320.375 9.53711 320.375 9.72461V9.86523C320.375 10.6152 319.859 11.0371 318.828 11.1309C318.828 11.3184 318.828 11.4121 318.828 11.4121C318.641 11.2246 318.406 11.1309 318.125 11.1309H317.984C317.609 11.3184 316.625 11.6934 315.031 12.2559C314.562 12.3496 314 13.2402 313.344 14.9277C312.875 15.4902 312.453 15.8184 312.078 15.9121C311.797 15.8184 311.656 15.7715 311.656 15.7715C311.656 15.3965 311.984 14.6465 312.641 13.5215C312.828 12.6777 312.922 12.1621 312.922 11.9746C313.578 9.53711 314.188 7.00586 314.75 4.38086C315.031 3.81836 315.406 3.53711 315.875 3.53711ZM303.078 6.49023H307.297C308.797 6.49023 309.547 6.81836 309.547 7.47461C309.547 7.94336 307.531 8.31836 303.5 8.59961C303.125 8.59961 302.844 8.17773 302.656 7.33398C302.844 6.86523 302.984 6.58398 303.078 6.49023ZM307.719 11.4121H308.281C308.469 11.4121 308.562 11.6934 308.562 12.2559L307.297 15.7715V16.1934C308.234 16.1934 309.078 16.6152 309.828 17.459C310.016 17.834 310.109 18.1152 310.109 18.3027V19.5684C310.109 20.3184 309.641 21.5371 308.703 23.2246V23.5059H309.125C309.125 23.3184 310.016 22.2402 311.797 20.2715C312.359 19.0527 312.922 18.3027 313.484 18.0215C314.703 15.1152 316.016 12.959 317.422 11.5527H317.844C318.312 11.5527 318.547 11.7402 318.547 12.1152C318.547 12.584 317.656 14.2246 315.875 17.0371C315.125 18.0684 314.75 19.0527 314.75 19.9902L314.891 20.834C315.641 20.834 316.484 20.2246 317.422 19.0059C317.516 19.0059 318.359 18.1152 319.953 16.334L320.656 16.1934C321.031 16.2871 321.219 16.3809 321.219 16.4746V16.6152C320.375 18.209 319.719 19.9902 319.25 21.959V22.0996C319.812 22.3809 321.078 22.9902 323.047 23.9277C323.609 23.7402 324.031 23.6465 324.312 23.6465H324.594C324.781 23.6465 324.922 23.7402 325.016 23.9277C324.547 25.8027 323.891 26.7402 323.047 26.7402C322.672 26.7402 321.219 25.9902 318.688 24.4902L317.984 24.209C317.609 24.4902 316.953 25.5215 316.016 27.3027C314.516 28.8965 313.484 29.6934 312.922 29.6934C312.734 29.6934 312.453 29.4121 312.078 28.8496C312.078 28.8496 312.172 28.709 312.359 28.4277L312.078 27.4434C312.359 26.5059 312.5 25.6621 312.5 24.9121V24.4902C312.5 24.0215 312.453 23.3184 312.359 22.3809H312.078C310.203 24.1621 309.125 25.0527 308.844 25.0527C308.656 25.0527 308.562 25.0527 308.562 25.0527C308.375 25.0527 308.141 25.0527 307.859 25.0527C306.734 26.834 305.609 28.2402 304.484 29.2715C304.203 29.2715 304.016 29.1309 303.922 28.8496V28.709C304.484 27.4902 304.953 26.834 305.328 26.7402C307.203 23.9277 308.141 21.3027 308.141 18.8652C307.391 18.3027 306.781 18.0215 306.312 18.0215C305.938 18.3027 305.609 18.959 305.328 19.9902C304.672 20.9277 303.828 22.4746 302.797 24.6309C301.859 26.5996 300.828 28.0059 299.703 28.8496C299.234 28.7559 299 28.4746 299 28.0059C299.469 27.6309 300.359 26.1777 301.672 23.6465C302.703 21.584 303.547 19.5215 304.203 17.459C305.047 16.6152 305.469 15.6309 305.469 14.5059C305.094 14.5059 303.734 15.0684 301.391 16.1934H300.688C300.312 16.1934 300.078 15.8652 299.984 15.209C299.984 14.7402 300.547 14.459 301.672 14.3652C301.672 14.084 302.891 13.5684 305.328 12.8184C305.797 12.4434 306.594 11.9746 307.719 11.4121ZM314.047 25.6152C314.141 26.084 314.188 26.459 314.188 26.7402H314.328C315.828 25.0527 316.578 24.0215 316.578 23.6465C316.578 23.459 316.016 23.0371 314.891 22.3809C314.703 22.4746 314.422 23.5527 314.047 25.6152ZM335.109 1.56836C335.859 1.66211 336.234 1.80273 336.234 1.99023V2.69336C335.391 3.91211 334.969 4.70898 334.969 5.08398C334.688 5.08398 334.125 5.78711 333.281 7.19336V7.33398H334.266C334.359 7.33398 334.453 7.52148 334.547 7.89648V8.74023C334.828 9.95898 334.969 10.6152 334.969 10.709C334.969 10.8027 334.875 10.8965 334.688 10.9902C334.688 11.459 335.203 11.7402 336.234 11.834C336.422 12.0215 336.516 12.3965 336.516 12.959L336.094 14.7871V15.6309C336.469 15.6309 336.656 15.7715 336.656 16.0527V16.334C336.281 16.6152 336.094 16.9902 336.094 17.459H335.953L335.812 17.1777C335.812 17.9277 335.531 18.6309 334.969 19.2871L335.109 19.5684L334.406 22.3809C334.406 22.5684 334.453 22.709 334.547 22.8027C333.891 27.3027 333.422 29.5527 333.141 29.5527L333.281 30.1152C333.281 30.3027 333.094 30.584 332.719 30.959C332.25 30.959 331.875 30.6777 331.594 30.1152V29.4121C331.875 29.4121 332.344 27.3027 333 23.084V22.9434C333 22.8496 333 22.8027 333 22.8027V22.6621V21.2559C332.062 22.2871 331.125 23.3652 330.188 24.4902H330.047C329.484 24.3027 329.109 23.9277 328.922 23.3652C329.016 22.709 330.375 21.0684 333 18.4434V18.1621V17.8809C333 17.7871 333.047 17.4121 333.141 16.7559V15.4902L333 14.6465C332.156 15.0215 331.031 15.8184 329.625 17.0371C328.969 17.0371 328.641 16.709 328.641 16.0527C329.578 14.9277 330.422 14.2246 331.172 13.9434C331.359 13.7559 331.969 13.2402 333 12.3965V11.2715C333 10.8965 332.953 10.4746 332.859 10.0059L333 9.86523L332.859 9.16211C332.953 9.06836 333 8.92773 333 8.74023C332.812 8.74023 332.719 8.64648 332.719 8.45898C332.625 8.45898 331.922 9.44336 330.609 11.4121C330.234 11.5996 329.859 11.6934 329.484 11.6934L329.203 11.4121V10.8496L329.766 10.4277C329.672 10.1465 329.625 9.95898 329.625 9.86523C330.094 9.49023 330.562 8.83398 331.031 7.89648C331.125 7.89648 331.406 7.47461 331.875 6.63086C332.906 5.31836 333.562 4.33398 333.844 3.67773C334.219 2.27148 334.641 1.56836 335.109 1.56836ZM345.094 1.99023H345.375C346.969 1.99023 347.766 2.31836 347.766 2.97461V3.53711C347.766 3.91211 347.109 5.27148 345.797 7.61523C344.672 9.11523 344.109 10.0059 344.109 10.2871C344.203 10.2871 344.25 10.334 344.25 10.4277L344.391 10.2871H344.953C345.047 10.2871 345.141 10.3809 345.234 10.5684C345.234 11.5059 344.812 12.584 343.969 13.8027C345.094 13.8027 345.656 14.084 345.656 14.6465V14.9277C345.656 15.1152 345.609 15.2559 345.516 15.3496L345.656 16.1934C345.469 17.0371 345.375 17.5996 345.375 17.8809C346.219 17.8809 346.828 18.1152 347.203 18.584V19.0059C347.203 19.7559 346.5 21.3965 345.094 23.9277C345 24.209 344.953 24.6777 344.953 25.334V25.6152H345.234C346.172 24.7715 347.438 24.0215 349.031 23.3652C349.031 23.1777 349.406 23.084 350.156 23.084L350.578 23.6465C350.578 24.0215 349.922 24.6777 348.609 25.6152C346.266 26.9277 344.766 27.7246 344.109 28.0059C343.266 28.7559 342.328 29.4121 341.297 29.9746H340.594C340.5 29.9746 340.266 29.6465 339.891 28.9902C339.891 28.334 340.453 27.4902 341.578 26.459C341.578 25.8027 342 25.2871 342.844 24.9121C343.031 24.4434 343.219 23.3184 343.406 21.5371H342.984C342.234 22.0059 341.672 22.8496 341.297 24.0684H341.016C340.266 23.5996 339.891 23.2715 339.891 23.084V22.3809C339.891 21.5371 341.109 20.2715 343.547 18.584C343.734 18.0215 343.828 17.3652 343.828 16.6152V16.4746H343.688C343.594 16.4746 342.656 17.2246 340.875 18.7246C339.75 19.6621 339.047 20.1309 338.766 20.1309H338.484C338.109 19.7559 337.922 19.5215 337.922 19.4277V18.7246C338.109 18.3496 338.906 17.5527 340.312 16.334L342.703 13.0996H342.422C341.391 13.9434 340.688 14.3652 340.312 14.3652C340.125 14.3652 339.797 14.2715 339.328 14.084C339.328 13.5215 339.75 12.7715 340.594 11.834V10.8496C340.219 10.8496 340.031 10.8027 340.031 10.709L340.312 10.4277C339.469 7.52148 339.047 5.64648 339.047 4.80273C339.328 4.52148 339.609 4.38086 339.891 4.38086C340.641 4.38086 341.016 4.66211 341.016 5.22461V5.78711L340.875 5.92773C341.062 5.92773 341.297 6.86523 341.578 8.74023C341.578 9.20898 341.672 9.77148 341.859 10.4277L343.406 9.02148C343.406 8.27148 344.062 7.24023 345.375 5.92773C345.375 5.64648 345.562 4.99023 345.938 3.95898C345.844 3.95898 345.797 3.91211 345.797 3.81836C345.797 3.81836 345.797 3.86523 345.797 3.95898L344.672 3.81836C343.641 3.91211 343.031 4.05273 342.844 4.24023L342.562 4.09961C342.562 4.28711 342.516 4.38086 342.422 4.38086C341.859 4.38086 341.391 4.14648 341.016 3.67773C341.297 2.74023 342.094 2.27148 343.406 2.27148C344.25 2.08398 344.812 1.99023 345.094 1.99023ZM368.406 24.209C369.062 24.209 369.391 24.584 369.391 25.334C367.984 28.8965 366.859 30.7715 366.016 30.959C365.922 30.959 365.875 30.8652 365.875 30.6777V30.1152L366.438 29.2715L366.297 28.709C366.766 28.5215 367.047 27.2559 367.141 24.9121C367.609 24.4434 368.031 24.209 368.406 24.209ZM386.234 7.19336C386.891 7.47461 387.266 7.80273 387.359 8.17773C386.516 13.1465 385.203 17.4121 383.422 20.9746C382.859 23.0371 381.688 25.0527 379.906 27.0215C379.625 27.209 379.484 27.3496 379.484 27.4434C379.297 27.3496 379.203 27.3027 379.203 27.3027C381.547 22.1465 383.469 17.0371 384.969 11.9746C385.438 8.78711 385.859 7.19336 386.234 7.19336ZM395.938 9.58398H396.219C396.219 9.58398 396.453 9.72461 396.922 10.0059C396.547 13.9434 395.141 18.7246 392.703 24.3496C391.391 27.5371 390.266 29.1309 389.328 29.1309V28.4277C390.828 25.2402 392.234 21.6309 393.547 17.5996C394.578 14.2246 395.094 11.5996 395.094 9.72461C395.281 9.63086 395.562 9.58398 395.938 9.58398ZM385.25 20.6934C386.281 20.6934 387.641 21.7715 389.328 23.9277L389.469 25.0527C389.469 25.0527 389.328 25.2402 389.047 25.6152C386.141 23.459 384.688 22.0059 384.688 21.2559V20.9746C384.688 20.8809 384.875 20.7871 385.25 20.6934ZM396.781 21.1152H396.922C398.328 22.1465 400.625 24.4902 403.812 28.1465C403.625 28.8965 403.438 29.3652 403.25 29.5527H402.547C402.266 29.5527 401 28.1934 398.75 25.4746C397.062 23.5996 396.219 22.4746 396.219 22.0996C396.312 21.4434 396.5 21.1152 396.781 21.1152ZM413.906 4.52148H414.328C415.078 4.52148 415.453 4.66211 415.453 4.94336C414.234 6.81836 412.781 8.74023 411.094 10.709C411.375 11.084 411.516 11.459 411.516 11.834H411.375C411.562 12.1152 411.656 12.4434 411.656 12.8184C411.562 13.1934 411.516 13.5215 411.516 13.8027C411.891 14.2715 412.078 14.8809 412.078 15.6309H412.5C412.5 15.2559 412.781 15.0215 413.344 14.9277L414.188 15.4902C414.188 16.709 413.719 17.6934 412.781 18.4434C412.594 18.9121 412.406 19.4746 412.219 20.1309V21.2559C413.906 20.5059 414.938 19.8027 415.312 19.1465C415.5 19.1465 416.484 18.3965 418.266 16.8965C419.016 16.6152 419.391 16.334 419.391 16.0527V15.6309C419.297 15.5371 419.109 14.9746 418.828 13.9434C418.828 13.9434 418.875 13.9434 418.969 13.9434C418.969 13.6621 418.875 12.8184 418.688 11.4121L418.828 11.2715C418.734 10.9902 418.547 10.4277 418.266 9.58398C418.547 9.58398 418.688 9.53711 418.688 9.44336C418.406 9.44336 418.266 8.92773 418.266 7.89648C418.641 7.42773 418.875 7.19336 418.969 7.19336C419.719 7.19336 420.094 8.13086 420.094 10.0059L419.812 10.1465L420.375 11.834L420.094 12.2559C420.375 14.0371 420.797 15.3027 421.359 16.0527C423.328 13.9902 424.312 12.9121 424.312 12.8184C424.312 12.4434 424.875 11.459 426 9.86523C426.375 9.30273 426.562 8.88086 426.562 8.59961V8.31836C426.188 8.31836 426 8.27148 426 8.17773L425.578 8.31836H424.734C424.547 8.31836 424.172 8.41211 423.609 8.59961H423.469C423.375 8.59961 423.328 8.59961 423.328 8.59961C421.828 8.41211 421.078 8.17773 421.078 7.89648C421.359 7.42773 421.734 7.19336 422.203 7.19336C424.453 6.91211 425.859 6.77148 426.422 6.77148C427.641 7.05273 428.25 7.28711 428.25 7.47461V8.59961C428.25 9.16211 427.172 10.9434 425.016 13.9434V14.3652C425.766 14.459 426.141 14.6465 426.141 14.9277C425.578 17.2715 424.734 19.3809 423.609 21.2559C421.734 24.4434 420.469 26.2715 419.812 26.7402C419.531 27.1152 419.203 27.3027 418.828 27.3027H418.266C418.172 27.3027 417.984 27.1152 417.703 26.7402V26.3184C420.516 23.3184 422.109 21.1152 422.484 19.709C422.484 19.709 422.672 19.4746 423.047 19.0059V18.7246C423.328 17.9746 423.562 17.5059 423.75 17.3184C423.656 17.1309 423.609 17.0371 423.609 17.0371L420.375 19.5684C419.719 19.1934 419.391 18.7715 419.391 18.3027L419.812 17.3184V17.1777H419.391C419.016 17.9277 418.031 18.9121 416.438 20.1309C415.5 21.2559 414.422 22.1934 413.203 22.9434C412.734 23.5996 412.219 24.7246 411.656 26.3184C411.656 26.5059 411.797 26.6465 412.078 26.7402C411.797 27.209 411.656 27.6309 411.656 28.0059V28.9902C411.656 29.084 411.422 29.4121 410.953 29.9746C410.016 29.9746 409.547 29.6465 409.547 28.9902C409.828 28.5215 410.062 27.6309 410.25 26.3184L409.969 25.8965L410.25 25.1934H409.969C409.688 25.9434 408.656 26.6465 406.875 27.3027C406.688 27.3027 406.359 27.4902 405.891 27.8652H405.469C404.812 27.3965 404.484 27.0684 404.484 26.8809V26.7402C404.672 26.1777 405.141 25.709 405.891 25.334L406.453 25.4746H406.594C409.312 23.9746 410.672 22.8965 410.672 22.2402V21.2559C410.391 20.9746 410.156 20.4121 409.969 19.5684C410.344 19.0996 410.531 18.8184 410.531 18.7246C408.938 19.0059 407.391 19.709 405.891 20.834C405.891 21.1152 405.609 21.2559 405.047 21.2559C404.578 20.9746 404.344 20.5996 404.344 20.1309C404.344 19.7559 405.234 19.1934 407.016 18.4434C408.984 17.5059 409.969 16.709 409.969 16.0527C409.594 14.2715 409.406 13.0527 409.406 12.3965H409.266C407.672 13.8965 406.734 14.6465 406.453 14.6465C406.078 14.5527 405.891 14.459 405.891 14.3652V14.084C405.891 13.6152 406.922 12.4902 408.984 10.709C408.984 10.5215 409.641 9.86523 410.953 8.74023C411.328 8.45898 411.516 8.27148 411.516 8.17773C411.516 7.89648 412.312 6.67773 413.906 4.52148ZM427.688 19.5684H427.969C429.656 20.1309 430.5 20.6934 430.5 21.2559C431.344 22.0059 431.859 22.6621 432.047 23.2246C433.547 24.8184 434.297 25.8496 434.297 26.3184C434.203 27.2559 434.016 27.7246 433.734 27.7246H433.312C433.125 27.7246 432.938 27.6309 432.75 27.4434C432.75 27.6309 432.703 27.7246 432.609 27.7246C432.141 26.5059 430.734 24.3496 428.391 21.2559C427.828 21.1621 427.547 20.6465 427.547 19.709L427.688 19.5684ZM445.234 2.13086C447.297 2.13086 450.766 4.89648 455.641 10.4277C456.391 11.459 456.766 12.3027 456.766 12.959C456.766 13.1465 456.531 13.334 456.062 13.5215H455.781C453.156 10.334 450.484 7.56836 447.766 5.22461C447.297 5.22461 446.266 4.52148 444.672 3.11523V2.55273C444.766 2.27148 444.953 2.13086 445.234 2.13086ZM444.812 7.33398C445.375 7.33398 445.656 7.61523 445.656 8.17773C445.188 10.5215 444.484 12.3496 443.547 13.6621V14.084C443.734 14.084 443.875 14.1777 443.969 14.3652C446.031 14.1777 447.391 14.0371 448.047 13.9434C448.141 14.0371 448.375 14.084 448.75 14.084C449.031 14.084 449.219 14.0371 449.312 13.9434L450.438 14.084H450.578L451.703 13.9434C453.484 14.2246 454.375 14.8809 454.375 15.9121C453.25 20.5059 451.75 24.6777 449.875 28.4277C448.656 30.1152 447.531 30.959 446.5 30.959C444.812 30.959 443.969 30.2559 443.969 28.8496C443.875 28.8496 443.828 28.5215 443.828 27.8652L444.812 27.7246H445.234C445.609 28.5684 446.031 28.9902 446.5 28.9902C448 27.959 449.734 24.3027 451.703 18.0215C451.703 17.459 451.844 16.8496 452.125 16.1934C451.656 16.0059 450.953 15.9121 450.016 15.9121H448.609C446.359 16.1934 444.672 16.334 443.547 16.334H442.141C441.391 16.709 440.688 17.459 440.031 18.584C438.906 19.5215 437.922 19.9902 437.078 19.9902H436.656C436.656 19.8965 436.422 19.709 435.953 19.4277C435.953 19.334 436.562 18.9121 437.781 18.1621C439.094 17.1309 440.125 15.8652 440.875 14.3652C441.25 14.1777 441.906 13.0059 442.844 10.8496C443.312 8.50586 443.688 7.33398 443.969 7.33398H444.812ZM445.656 18.0215C446.219 18.0215 446.641 18.209 446.922 18.584V19.0059C446.078 21.7246 444.391 24.3496 441.859 26.8809C440.359 28.0996 439.328 28.709 438.766 28.709H438.344C438.062 28.709 437.828 28.4746 437.641 28.0059V27.8652C440.453 25.709 442.234 23.7871 442.984 22.0996C444.203 19.8496 445 18.4902 445.375 18.0215H445.656ZM467.141 4.38086C470.047 5.50586 471.5 6.63086 471.5 7.75586C471.781 7.75586 472.016 9.25586 472.203 12.2559C472.203 13.7559 471.969 16.334 471.5 19.9902V21.1152L471.078 24.6309V24.7715C471.078 24.959 471.078 25.0527 471.078 25.0527C470.516 26.834 470 27.7246 469.531 27.7246C468.781 27.7246 468.312 26.459 468.125 23.9277C468.312 23.6465 468.5 23.5059 468.688 23.5059H469.531C469.531 23.4121 469.531 23.084 469.531 22.5215C469.531 22.4277 469.484 22.3809 469.391 22.3809C467.422 23.4121 466.391 23.9277 466.297 23.9277C466.297 23.9277 466.016 23.6934 465.453 23.2246H465.172V23.3652V24.4902C465.172 24.6777 465.172 24.8652 465.172 25.0527C464.797 25.9902 464.609 26.459 464.609 26.459H464.047L463.484 26.0371L463.625 25.334C463.625 24.959 463.578 24.209 463.484 23.084L463.906 16.7559C463.906 16.5684 463.812 16.0996 463.625 15.3496C463.625 10.8496 464.047 8.59961 464.891 8.59961L465.172 8.31836C465.734 8.50586 466.016 8.88086 466.016 9.44336C466.016 10.3809 465.969 11.7402 465.875 13.5215C465.875 13.8027 465.875 13.9902 465.875 14.084C465.875 14.1777 465.875 14.4121 465.875 14.7871V15.209C467 14.9277 467.609 14.7871 467.703 14.7871C468.922 14.7871 469.531 15.3965 469.531 16.6152V17.1777C469.156 18.4902 468.734 19.6621 468.266 20.6934V21.1152C469.391 20.6465 469.953 20.2246 469.953 19.8496C470.422 16.9434 470.656 14.834 470.656 13.5215L470.516 12.2559C470.609 11.6934 470.656 11.2246 470.656 10.8496C469.906 8.13086 468.734 6.77148 467.141 6.77148C466.391 6.77148 465.922 6.39648 465.734 5.64648V5.50586C465.922 4.75586 466.391 4.38086 467.141 4.38086ZM480.078 5.50586H480.641C481.109 5.50586 481.344 6.39648 481.344 8.17773V8.31836C481.344 9.16211 481.344 9.77148 481.344 10.1465V10.9902C482.75 10.9902 483.688 10.709 484.156 10.1465C484.719 10.2402 485 10.4746 485 10.8496C485 11.6934 483.969 12.3496 481.906 12.8184C481.719 13.1934 481.625 13.5215 481.625 13.8027C481.625 14.459 481.719 14.9746 481.906 15.3496C481.719 16.0996 481.625 16.8027 481.625 17.459V18.0215C481.812 18.0215 482.891 17.4121 484.859 16.1934H485C485.188 16.1934 485.281 16.2871 485.281 16.4746C485.281 17.0371 484.344 17.9277 482.469 19.1465C481.719 19.709 481.344 20.6465 481.344 21.959L481.625 22.5215C481.438 27.209 480.922 29.5527 480.078 29.5527L479.375 29.6934C477.875 29.4121 476.047 28.1934 473.891 26.0371C473.703 25.7559 473.609 25.4746 473.609 25.1934C474.922 23.4121 476.281 22.1465 477.688 21.3965C477.688 21.209 478.438 20.5996 479.938 19.5684V19.4277C479.938 19.2402 479.844 19.0527 479.656 18.8652L480.078 18.4434C479.797 18.2559 479.656 17.2246 479.656 15.3496C479.656 14.9746 479.656 14.459 479.656 13.8027L473.609 15.7715C472.859 15.4902 472.484 15.0684 472.484 14.5059C472.484 13.8496 473.656 13.2871 476 12.8184C478.344 12.2559 479.562 11.7871 479.656 11.4121L479.516 5.92773L480.078 5.50586ZM466.297 17.1777C466.109 16.9902 465.969 16.8965 465.875 16.8965C465.594 17.3652 465.453 17.5996 465.453 17.5996C465.641 18.2559 465.734 18.6309 465.734 18.7246L465.172 20.6934C465.359 20.9746 465.453 21.1621 465.453 21.2559L465.172 22.3809C465.359 22.3809 465.547 22.3809 465.734 22.3809C467.047 21.7246 467.703 20.459 467.703 18.584C467.984 18.209 468.125 17.834 468.125 17.459V17.1777C468.125 16.9902 467.984 16.8965 467.703 16.8965L466.297 17.1777ZM476 25.1934C477.125 26.6934 478.25 27.4434 479.375 27.4434C479.562 27.0684 479.656 25.2402 479.656 21.959H479.375C477.875 22.9902 476.75 24.0684 476 25.1934ZM497.906 4.38086C498.469 4.47461 498.75 4.75586 498.75 5.22461C498.75 6.25586 497.672 9.16211 495.516 13.9434C495.328 13.9434 495.188 14.084 495.094 14.3652V14.5059C495.75 16.7559 496.078 18.6309 496.078 20.1309C496.078 20.8809 495.938 22.1934 495.656 24.0684L495.938 24.209L495.656 24.3496C496.125 25.0996 496.359 25.4746 496.359 25.4746C495.797 27.1621 495.375 28.0059 495.094 28.0059C494.531 28.0059 494.062 27.584 493.688 26.7402C494.156 23.7402 494.391 22.0527 494.391 21.6777V20.2715C494.297 18.4902 494.109 17.5996 493.828 17.5996C492.891 19.4746 491.719 21.6777 490.312 24.209C489.938 24.1152 489.656 23.834 489.469 23.3652C490.312 21.3027 491.578 18.4902 493.266 14.9277C495.328 10.6152 496.453 7.89648 496.641 6.77148C497.109 5.17773 497.531 4.38086 497.906 4.38086ZM508.172 5.36523C508.922 5.36523 509.344 5.92773 509.438 7.05273C509.812 7.14648 510 7.47461 510 8.03711V8.17773C510 8.27148 509.812 8.36523 509.438 8.45898C508.688 8.17773 508.078 7.52148 507.609 6.49023V5.92773C507.609 5.83398 507.797 5.64648 508.172 5.36523ZM501.984 7.75586H502.125C502.969 7.75586 503.719 9.16211 504.375 11.9746L504.516 12.2559H504.938C506.156 11.5059 507 11.1309 507.469 11.1309C507.844 11.4121 508.031 11.7871 508.031 12.2559C508.031 13.0996 507.328 13.709 505.922 14.084C505.547 14.2715 505.359 14.5059 505.359 14.7871C506.672 19.8496 508.359 23.7402 510.422 26.459C510.703 26.459 510.844 26.3184 510.844 26.0371C510.844 24.8184 510.703 22.9902 510.422 20.5527V19.9902H510.562C510.75 20.3652 511.125 21.4434 511.688 23.2246C512.438 26.2246 513.094 27.7246 513.656 27.7246V27.8652C513.375 29.3652 512.953 30.1152 512.391 30.1152C510.703 29.459 509.203 28.2402 507.891 26.459C505.172 21.209 503.812 17.834 503.812 16.334C503.438 15.7715 503.203 15.4902 503.109 15.4902L498.609 18.3027H498.328C497.953 18.209 497.672 17.9277 497.484 17.459V17.1777C497.484 16.4277 498.234 15.8184 499.734 15.3496C500.484 14.5996 501.422 13.9902 502.547 13.5215L502.688 13.0996C502.219 11.5996 501.797 10.1465 501.422 8.74023V8.59961C501.422 8.22461 501.609 7.94336 501.984 7.75586ZM15.9844 58.5527C16.0781 58.5527 16.2656 58.7871 16.5469 59.2559V59.5371C16.5469 61.2246 15.9844 62.5371 14.8594 63.4746H14.5781C14.5781 63.1934 14.7188 62.9121 15 62.6309C15 62.2559 14.9531 62.0215 14.8594 61.9277L15 61.084V60.6621C14.25 60.6621 12.4219 61.2246 9.51562 62.3496C9.32812 62.3496 8.8125 62.4434 7.96875 62.6309C7.59375 62.4434 7.40625 61.9746 7.40625 61.2246C7.40625 60.8496 7.875 60.6152 8.8125 60.5215C12.6562 59.209 15.0469 58.5527 15.9844 58.5527ZM17.6719 63.6152C18.5156 63.709 18.9375 63.9902 18.9375 64.459C18.8438 64.9277 18.7969 65.2559 18.7969 65.4434L18.9375 66.2871C18.8438 66.9434 18.7969 67.459 18.7969 67.834C18.7969 68.209 18.8438 68.3965 18.9375 68.3965C19.0312 68.3965 19.6875 68.1621 20.9062 67.6934H21.1875C21.2812 67.6934 21.4688 67.834 21.75 68.1152C21.75 69.2402 20.9062 70.0371 19.2188 70.5059C18.4688 70.9746 17.9062 74.7246 17.5312 81.7559C17.5312 85.2246 17.2031 86.959 16.5469 86.959C16.3594 86.959 16.0781 86.6309 15.7031 85.9746L16.6875 74.4434C16.6875 74.2559 16.6406 74.0684 16.5469 73.8809L16.6875 73.1777L16.5469 71.6309H16.4062C16.125 71.6309 15.5625 71.8652 14.7188 72.334C12.75 72.8027 11.7656 73.5059 11.7656 74.4434V77.6777C11.7656 78.334 11.4844 78.8027 10.9219 79.084C10.4531 79.084 10.1719 78.5684 10.0781 77.5371C10.0781 77.0684 10.125 76.5527 10.2188 75.9902C10.125 75.5215 10.0781 74.9121 10.0781 74.1621H9.79688C6.70312 75.0059 4.6875 75.6152 3.75 75.9902C3.65625 75.9902 3.51562 75.9902 3.32812 75.9902C2.85938 75.9902 2.48438 75.5684 2.20312 74.7246C2.20312 73.9746 3.1875 73.5996 5.15625 73.5996C8.4375 72.5684 10.0781 72.0527 10.0781 72.0527C10.2656 71.7715 10.3594 71.4902 10.3594 71.209V67.834C10.3594 67.6465 10.3125 67.459 10.2188 67.2715C10.3125 66.9902 10.3594 66.8027 10.3594 66.709L10.0781 65.7246C10.0781 65.4434 10.1719 65.3027 10.3594 65.3027H11.0625C11.5312 65.3027 11.7656 66.1934 11.7656 67.9746V71.209H12.4688L16.5469 69.3809C17.0156 66.5684 17.3438 64.6465 17.5312 63.6152H17.6719ZM34.9375 59.3965C35.6875 59.3965 36.0625 60.334 36.0625 62.209V62.3496C36.0625 63.9434 35.5938 66.6621 34.6562 70.5059V70.7871C35.125 70.7871 35.7344 70.5059 36.4844 69.9434H37.0469C37.0469 70.7871 37.2344 71.4902 37.6094 72.0527V72.334C37.6094 73.459 36.7656 75.5684 35.0781 78.6621C34.2344 79.7871 33.8125 80.4902 33.8125 80.7715C35.9688 82.084 37.4219 82.7402 38.1719 82.7402C38.1719 81.9902 38.5 81.6152 39.1562 81.6152V81.1934L38.3125 78.6621C38.4062 78.3809 38.5938 78.1465 38.875 77.959C39.4375 77.959 39.9062 78.5684 40.2812 79.7871C40.5625 79.7871 41.1719 81.1934 42.1094 84.0059C42.2031 84.0059 42.2969 84.4746 42.3906 85.4121V85.6934C42.3906 85.7871 42.25 85.8809 41.9688 85.9746C41.3125 85.9746 40.7031 85.084 40.1406 83.3027C39.8594 82.9277 39.7188 82.7402 39.7188 82.7402H39.5781C39.5781 83.584 39.25 84.0996 38.5938 84.2871H38.3125C36.3438 83.7246 34.4688 82.9277 32.6875 81.8965C31.8438 82.6465 31.1875 83.0684 30.7188 83.1621C29.5 84.7559 28.75 84.709 28.4688 83.0215C30.0625 81.709 30.8594 81.0059 30.8594 80.9121V80.7715C30.2969 79.9277 30.0156 79.3184 30.0156 78.9434C30.0156 78.6621 30.3906 77.7246 31.1406 76.1309C31.1406 75.9434 31.3281 75.3809 31.7031 74.4434V74.3027H31.4219C30.1094 75.0527 29.3125 75.4277 29.0312 75.4277C28.4688 75.4277 28.1875 75.0996 28.1875 74.4434V74.3027C28.1875 73.7402 28.6562 73.3652 29.5938 73.1777C32.0312 72.5215 33.25 71.6309 33.25 70.5059C33.625 69.1934 33.9062 67.834 34.0938 66.4277C34.4688 65.4902 34.6562 64.6465 34.6562 63.8965H34.5156L34.6562 63.7559V62.0684C34.2812 60.8496 34.0938 60.1465 34.0938 59.959C34.0938 59.584 34.375 59.3965 34.9375 59.3965ZM43.0938 62.3496H43.5156C43.7969 62.3496 43.9375 62.3965 43.9375 62.4902C43.9375 63.2402 43.0938 65.6309 41.4062 69.6621C41.125 70.4121 40.75 71.209 40.2812 72.0527V72.4746H40.7031C41.4531 72.3809 43.0938 71.4434 45.625 69.6621V69.5215C45.625 69.334 45.3438 68.8184 44.7812 67.9746C44.9688 67.5059 45.0625 67.1777 45.0625 66.9902H45.7656C47.7344 69.334 48.7188 70.9277 48.7188 71.7715C48.7188 72.334 48.3906 72.8027 47.7344 73.1777H47.5938C47.4062 73.1777 47.3125 72.9902 47.3125 72.6152V72.334L47.4531 72.0527C47.2656 71.3027 46.9375 70.834 46.4688 70.6465C45.3438 71.8652 42.8594 73.3652 39.0156 75.1465H38.7344C38.1719 75.1465 37.8438 74.8652 37.75 74.3027C37.75 74.209 38.4062 72.8027 39.7188 70.084C41.5938 65.1152 42.5312 62.584 42.5312 62.4902L43.0938 62.3496ZM31.7031 78.9434L32.4062 79.6465H32.5469C34.4219 77.6777 35.3594 75.9902 35.3594 74.584C35.9219 72.9902 36.2031 72.0059 36.2031 71.6309H35.9219C33.8594 72.9434 32.8281 74.0684 32.8281 75.0059C32.0781 77.0684 31.7031 78.3809 31.7031 78.9434ZM49.5625 75.0059C50.3125 75.2871 50.6875 75.6152 50.6875 75.9902V76.834C50.6875 77.8652 49.9375 80.0684 48.4375 83.4434C48.4375 84.0059 47.5 84.9434 45.625 86.2559C45.0625 86.2559 44.7812 85.7402 44.7812 84.709C46 83.8652 47.2188 82.4121 48.4375 80.3496C48.5312 80.3496 48.8125 79.3652 49.2812 77.3965V77.1152C49.2812 76.9277 49.2344 76.834 49.1406 76.834C45.2031 78.8027 43.1406 79.7871 42.9531 79.7871C42.4844 79.6934 42.25 79.3184 42.25 78.6621C42.25 78.3809 43.4219 77.7246 45.7656 76.6934C46.6094 76.0371 47.875 75.4746 49.5625 75.0059ZM37.3281 69.9434L37.75 70.6465V71.6309C37.75 71.9121 37.6562 72.0527 37.4688 72.0527H37.1875C36.9062 72.0527 36.7188 71.4434 36.625 70.2246L37.3281 69.9434ZM68.9375 59.959C69.5 60.1465 69.7812 60.3809 69.7812 60.6621C69.7812 61.9746 69.125 65.209 67.8125 70.3652H67.9531C67.1094 72.6152 66.4531 75.0996 65.9844 77.8184L66.125 78.6621C65.375 79.4121 64.9062 79.7871 64.7188 79.7871C64.1562 79.4121 63.875 78.9902 63.875 78.5215C64.25 76.6465 65.2344 72.2402 66.8281 65.3027C67.3906 61.9277 67.8125 60.2402 68.0938 60.2402C68.375 60.0527 68.6562 59.959 68.9375 59.959ZM63.7344 84.0059C64.3906 84.0059 64.7188 84.5215 64.7188 85.5527C64.7188 86.3965 64.0625 86.8652 62.75 86.959C62.0938 86.6777 61.7656 86.3965 61.7656 86.1152C61.7656 85.2715 62.4219 84.5684 63.7344 84.0059Z" fill="#1C1F23"/>
</svg>
