<svg xmlns="http://www.w3.org/2000/svg" width="18" height="18" viewBox="0 0 18 18" fill="none">
  <path d="M9.75014 1.5L3.07023 9.51589C2.80863 9.82982 2.67782 9.98678 2.67582 10.1193C2.67409 10.2346 2.72544 10.3442 2.81508 10.4167C2.9182 10.5 3.12252 10.5 3.53117 10.5H9.00014L8.25014 16.5L14.93 8.48411C15.1917 8.17018 15.3225 8.01322 15.3245 7.88065C15.3262 7.76541 15.2748 7.65577 15.1852 7.58333C15.0821 7.5 14.8778 7.5 14.4691 7.5H9.00014L9.75014 1.5Z" fill="url(#paint0_linear_17579_48953)"/>
  <path d="M9.31822 1.13941C9.47804 0.947798 9.74518 0.884156 9.9741 0.983405C10.2032 1.08284 10.3391 1.32229 10.3081 1.57007L9.63792 6.9369H14.4697C14.6626 6.93689 14.8463 6.93683 14.9927 6.95008C15.1106 6.96076 15.2952 6.98578 15.4662 7.094L15.5387 7.14564L15.6189 7.21815C15.7932 7.39583 15.8907 7.63755 15.8869 7.88941C15.8831 8.13223 15.765 8.323 15.6881 8.43433C15.6045 8.55535 15.4854 8.69582 15.3618 8.84412L8.68211 16.8597C8.52224 17.0515 8.25526 17.1152 8.02623 17.0158C7.79723 16.9163 7.66135 16.6779 7.69224 16.4302L8.36351 11.0623H3.53172C3.33861 11.0623 3.15417 11.0623 3.00767 11.0491C2.87279 11.0368 2.65058 11.0062 2.46165 10.8535C2.23772 10.6725 2.10911 10.3988 2.11338 10.1108L2.11998 10.0219C2.14626 9.82112 2.24602 9.66339 2.31334 9.56592C2.39693 9.4449 2.51492 9.30337 2.63853 9.15504L9.31822 1.13941Z" fill="url(#paint1_linear_17579_48953)"/>
  <defs>
    <linearGradient id="paint0_linear_17579_48953" x1="9.00014" y1="1.5" x2="9.00014" y2="16.5" gradientUnits="userSpaceOnUse">
      <stop stop-color="#D9D9D9"/>
      <stop offset="1" stop-color="#737373"/>
    </linearGradient>
    <linearGradient id="paint1_linear_17579_48953" x1="9.00017" y1="0.937012" x2="9.00017" y2="17.0623" gradientUnits="userSpaceOnUse">
      <stop stop-color="#FFCA31"/>
      <stop offset="1" stop-color="#FC8800"/>
    </linearGradient>
  </defs>
</svg>

