<svg width="81" height="59" viewBox="0 0 81 59" fill="none" xmlns="http://www.w3.org/2000/svg">
<path d="M30.5264 0.111442C32.2555 -0.299578 34.0526 0.450088 34.9771 1.96799C43.8646 16.5641 59.2141 26.0179 76.2481 27.387C78.0197 27.5297 79.4978 28.7972 79.9088 30.5263C80.3198 32.2555 79.5701 34.0525 78.0522 34.9771C63.4562 43.8646 54.0024 59.214 52.6332 76.2481C52.4906 78.0197 51.2231 79.4978 49.4939 79.9088C47.7647 80.3198 45.9677 79.5701 45.0431 78.0522C36.1556 63.4561 20.8062 54.0023 3.77215 52.6332C2.00057 52.4906 0.522478 51.2231 0.111458 49.4939C-0.299562 47.7647 0.450104 45.9677 1.96801 45.0431C16.5641 36.1556 26.0179 20.8062 27.387 3.77213L27.4917 3.12154C27.8539 1.64684 29.0138 0.470972 30.5264 0.111442ZM33.9225 14.3994C30.8461 26.7247 24.0221 37.8043 14.3994 46.0977C26.7236 49.1738 37.8036 55.9956 46.0968 65.6169C49.1733 53.2942 55.9965 42.2158 65.617 33.9235C53.293 30.8466 42.2152 24.0212 33.9225 14.3994Z" fill="url(#paint0_linear_14996_337278)"/>
<defs>
<linearGradient id="paint0_linear_14996_337278" x1="30.5264" y1="0.111442" x2="49.4939" y2="79.9088" gradientUnits="userSpaceOnUse">
<stop stop-color="#E2E3E2" stop-opacity="0.25"/>
<stop offset="1" stop-color="#E2E3E2"/>
</linearGradient>
</defs>
</svg>
