<svg width="14" height="14" viewBox="0 0 14 14" fill="none" xmlns="http://www.w3.org/2000/svg">
<path d="M7.00039 1.3999C7.24309 1.3999 7.45815 1.55624 7.53305 1.78709C8.25283 4.00682 9.99347 5.74746 12.2132 6.46725C12.4441 6.54214 12.6004 6.7572 12.6004 6.9999C12.6004 7.2426 12.4441 7.45766 12.2132 7.53256C9.99347 8.25235 8.25283 9.99298 7.53305 12.2127C7.45815 12.4436 7.24309 12.5999 7.00039 12.5999C6.75769 12.5999 6.54263 12.4436 6.46773 12.2127C5.74795 9.99298 4.00731 8.25235 1.78758 7.53256C1.55673 7.45766 1.40039 7.2426 1.40039 6.9999C1.40039 6.7572 1.55673 6.54214 1.78758 6.46725C4.00731 5.74746 5.74795 4.00682 6.46773 1.78709L6.50219 1.70396C6.59688 1.51949 6.7881 1.3999 7.00039 1.3999ZM7.00039 3.40529C6.20248 4.94556 4.94605 6.20199 3.40578 6.9999C4.94591 7.79774 6.20247 9.05389 7.00039 10.594C7.79824 9.05404 9.05453 7.79775 10.5945 6.9999C9.05438 6.20198 7.79823 4.94542 7.00039 3.40529Z" fill="#0E9F77"/>
</svg>
