<svg width="18" height="23" viewBox="0 0 18 23" fill="none" xmlns="http://www.w3.org/2000/svg">
<path fill-rule="evenodd" clip-rule="evenodd" d="M3.08303 5.34133L7.1964 6.01381C7.1964 6.47334 7.16278 6.94408 7.12915 7.42603C5.82901 8.09851 3.76673 8.84946 2.29847 8.71497C2.46659 7.56053 2.74679 6.39489 3.08303 5.34133ZM6.35579 15.0251C8.97848 12.1558 8.88882 5.96898 8.8664 5.27408C8.85519 4.87059 8.56378 4.53435 8.16029 4.4671L2.65713 3.57046C2.25364 3.50321 1.86136 3.73858 1.72686 4.11965C1.49149 4.76972 -0.548375 10.6203 1.04317 14.1733C1.35699 14.8794 1.9286 15.4398 2.64592 15.7536L2.09672 19.2393L0.97592 19.06C0.516389 18.9815 0.0792758 19.2954 0.0120274 19.7549C-0.0664289 20.2144 0.247396 20.6403 0.706927 20.7188L4.5737 21.3464C4.61854 21.3576 4.66337 21.3576 4.7082 21.3576C5.11169 21.3576 5.47035 21.0662 5.5376 20.6515C5.61605 20.192 5.30223 19.7661 4.8427 19.6876L3.75552 19.5083L4.30471 16.0226C5.08928 15.9442 5.8178 15.6079 6.35579 15.0251Z" fill="url(#paint0_linear_14941_314660)"/>
<path fill-rule="evenodd" clip-rule="evenodd" d="M11.2425 6.9553L15.3783 6.48456C15.6697 7.54933 15.8939 8.72617 16.0059 9.8806C14.5377 9.94785 12.509 9.10725 11.2425 8.37873C11.2201 7.89678 11.2201 7.41483 11.2425 6.9553ZM16.8241 20.2817L15.7145 20.405L15.311 16.9081C16.0508 16.6279 16.656 16.0899 17.0147 15.395C18.7631 11.9205 16.9922 5.9802 16.7905 5.31893C16.6672 4.93785 16.2861 4.69128 15.8939 4.73611L10.3459 5.36376C9.94237 5.40859 9.62855 5.73362 9.59492 6.13711C9.55009 6.83201 9.16902 13.0189 11.6572 16.0002C12.1616 16.6054 12.8677 16.9753 13.641 17.0874L14.0445 20.5955L12.9349 20.73C12.4642 20.7748 12.1392 21.1895 12.1952 21.6603C12.24 22.0862 12.6099 22.4 13.0246 22.4H13.1255L15.0645 22.1758H15.0757L17.0147 21.9517C17.4854 21.8956 17.8104 21.4809 17.7544 21.0214C17.7096 20.5619 17.3061 20.2368 16.8241 20.2817Z" fill="url(#paint1_linear_14941_314660)"/>
<path fill-rule="evenodd" clip-rule="evenodd" d="M6.42459 3.53862C6.59047 3.71907 6.8169 3.80985 7.0433 3.80985C7.24616 3.80985 7.45127 3.737 7.61267 3.58793C7.95451 3.27299 7.97581 2.74173 7.66198 2.39988L6.59944 1.24769C6.28449 0.904726 5.75323 0.884551 5.41138 1.19838C5.07066 1.51332 5.04824 2.04458 5.36319 2.38643L6.42459 3.53862Z" fill="url(#paint2_linear_14941_314660)"/>
<path fill-rule="evenodd" clip-rule="evenodd" d="M11.9045 4.47013C12.0681 4.47013 12.2329 4.42306 12.3786 4.3233L13.672 3.43787C14.0553 3.1756 14.1528 2.65218 13.8905 2.26887C13.6283 1.88555 13.1048 1.78804 12.7215 2.05031L11.4292 2.93575C11.0459 3.19802 10.9473 3.72143 11.2107 4.10475C11.3732 4.34236 11.6366 4.47013 11.9045 4.47013Z" fill="url(#paint3_linear_14941_314660)"/>
<path fill-rule="evenodd" clip-rule="evenodd" d="M10.4761 2.50871L10.6902 0.956394C10.7529 0.496864 10.4313 0.0720789 9.97174 0.00931381C9.51109 -0.0601761 9.08742 0.267099 9.02466 0.726629L8.81059 2.27894C8.74782 2.73847 9.06837 3.16326 9.5279 3.22715C9.56713 3.23275 9.60636 3.23387 9.64446 3.23387C10.0569 3.23387 10.4178 2.92901 10.4761 2.50871Z" fill="url(#paint4_linear_14941_314660)"/>
<defs>
<linearGradient id="paint0_linear_14941_314660" x1="0.525284" y1="31.92" x2="28.3412" y2="21.8848" gradientUnits="userSpaceOnUse">
<stop stop-color="#F3FBFF"/>
<stop offset="1" stop-color="#D2FFFD"/>
</linearGradient>
<linearGradient id="paint1_linear_14941_314660" x1="0.525284" y1="31.92" x2="28.3412" y2="21.8848" gradientUnits="userSpaceOnUse">
<stop stop-color="#F3FBFF"/>
<stop offset="1" stop-color="#D2FFFD"/>
</linearGradient>
<linearGradient id="paint2_linear_14941_314660" x1="0.525284" y1="31.92" x2="28.3412" y2="21.8848" gradientUnits="userSpaceOnUse">
<stop stop-color="#F3FBFF"/>
<stop offset="1" stop-color="#D2FFFD"/>
</linearGradient>
<linearGradient id="paint3_linear_14941_314660" x1="0.525284" y1="31.92" x2="28.3412" y2="21.8848" gradientUnits="userSpaceOnUse">
<stop stop-color="#F3FBFF"/>
<stop offset="1" stop-color="#D2FFFD"/>
</linearGradient>
<linearGradient id="paint4_linear_14941_314660" x1="0.525284" y1="31.92" x2="28.3412" y2="21.8848" gradientUnits="userSpaceOnUse">
<stop stop-color="#F3FBFF"/>
<stop offset="1" stop-color="#D2FFFD"/>
</linearGradient>
</defs>
</svg>
