<svg width="41" height="52" viewBox="0 0 41 52" fill="none" xmlns="http://www.w3.org/2000/svg">
<path fill-rule="evenodd" clip-rule="evenodd" d="M7.04693 12.2088L16.4489 13.7459C16.4489 14.7962 16.3721 15.8722 16.2952 16.9738C13.3234 18.5109 8.60966 20.2273 5.25365 19.9199C5.63792 17.2812 6.27838 14.6169 7.04693 12.2088ZM14.5275 34.3431C20.5222 27.7848 20.3173 13.6434 20.2661 12.055C20.2404 11.1328 19.5744 10.3642 18.6521 10.2105L6.07343 8.16105C5.15117 8.00734 4.25453 8.54532 3.94711 9.41635C3.40912 10.9022 -1.25343 24.275 2.38439 32.3961C3.1017 34.01 4.40824 35.291 6.04782 36.0083L4.79251 43.9756L2.23067 43.5657C1.18032 43.3864 0.181202 44.1037 0.0274913 45.154C-0.151838 46.2044 0.565478 47.1779 1.61583 47.3572L10.4542 48.7919C10.5567 48.8175 10.6591 48.8175 10.7616 48.8175C11.6839 48.8175 12.5037 48.1514 12.6574 47.2035C12.8367 46.1532 12.1194 45.1797 11.069 45.0003L8.58404 44.5904L9.83934 36.6231C11.6326 36.4438 13.2978 35.6752 14.5275 34.3431Z" fill="url(#paint0_linear_15557_66791)"/>
<path fill-rule="evenodd" clip-rule="evenodd" d="M25.6972 15.8978L35.1504 14.8219C35.8164 17.2556 36.3288 19.9455 36.585 22.5842C33.229 22.7379 28.592 20.8166 25.6972 19.1514C25.6459 18.0498 25.6459 16.9482 25.6972 15.8978ZM38.4551 46.3581L35.9189 46.6399L34.9966 38.647C36.6875 38.0065 38.0709 36.7768 38.8906 35.1885C42.8871 27.2468 38.8394 13.669 38.3783 12.1575C38.0965 11.2865 37.2254 10.7229 36.3288 10.8254L23.6477 12.26C22.7254 12.3625 22.0081 13.1054 21.9313 14.0277C21.8288 15.616 20.9578 29.7574 26.645 36.5719C27.7979 37.9553 29.4118 38.8007 31.1795 39.0569L32.1018 47.0754L29.5655 47.3829C28.4896 47.4853 27.7466 48.4332 27.8747 49.5092C27.9772 50.4827 28.8226 51.2 29.7705 51.2H30.0011L34.433 50.6876H34.4587L38.8906 50.1753C39.9666 50.0472 40.7095 49.0993 40.5815 48.0489C40.479 46.9986 39.5567 46.2556 38.4551 46.3581Z" fill="url(#paint1_linear_15557_66791)"/>
<path fill-rule="evenodd" clip-rule="evenodd" d="M14.6848 8.08827C15.0639 8.50073 15.5815 8.70823 16.099 8.70823C16.5627 8.70823 17.0315 8.54171 17.4004 8.20099C18.1817 7.48111 18.2304 6.2668 17.5131 5.48544L15.0844 2.85187C14.3645 2.06795 13.1502 2.02183 12.3689 2.73915C11.5901 3.45902 11.5388 4.67334 12.2587 5.4547L14.6848 8.08827Z" fill="url(#paint2_linear_15557_66791)"/>
<path fill-rule="evenodd" clip-rule="evenodd" d="M27.2102 10.2174C27.5842 10.2174 27.9608 10.1098 28.2938 9.88184L31.2502 7.85798C32.1264 7.25851 32.3492 6.06213 31.7498 5.18598C31.1503 4.30983 29.9539 4.08695 29.0778 4.68642L26.124 6.71028C25.2478 7.30975 25.0224 8.50613 25.6244 9.38228C25.9959 9.92539 26.5979 10.2174 27.2102 10.2174Z" fill="url(#paint3_linear_15557_66791)"/>
<path fill-rule="evenodd" clip-rule="evenodd" d="M23.9454 5.73419L24.4347 2.18604C24.5782 1.13569 23.8429 0.164752 22.7925 0.0212887C21.7396 -0.137545 20.7713 0.610512 20.6278 1.66087L20.1385 5.20901C19.995 6.25937 20.7277 7.23031 21.7781 7.37633C21.8677 7.38914 21.9574 7.3917 22.0445 7.3917C22.9872 7.3917 23.8122 6.69488 23.9454 5.73419Z" fill="url(#paint4_linear_15557_66791)"/>
<defs>
<linearGradient id="paint0_linear_15557_66791" x1="1.20065" y1="72.96" x2="64.7798" y2="50.0223" gradientUnits="userSpaceOnUse">
<stop stop-color="#8EEFB6"/>
<stop offset="1" stop-color="#00B3AD"/>
</linearGradient>
<linearGradient id="paint1_linear_15557_66791" x1="1.20065" y1="72.96" x2="64.7798" y2="50.0223" gradientUnits="userSpaceOnUse">
<stop stop-color="#8EEFB6"/>
<stop offset="1" stop-color="#00B3AD"/>
</linearGradient>
<linearGradient id="paint2_linear_15557_66791" x1="1.20065" y1="72.96" x2="64.7798" y2="50.0223" gradientUnits="userSpaceOnUse">
<stop stop-color="#8EEFB6"/>
<stop offset="1" stop-color="#00B3AD"/>
</linearGradient>
<linearGradient id="paint3_linear_15557_66791" x1="1.20065" y1="72.96" x2="64.7798" y2="50.0223" gradientUnits="userSpaceOnUse">
<stop stop-color="#8EEFB6"/>
<stop offset="1" stop-color="#00B3AD"/>
</linearGradient>
<linearGradient id="paint4_linear_15557_66791" x1="1.20065" y1="72.96" x2="64.7798" y2="50.0223" gradientUnits="userSpaceOnUse">
<stop stop-color="#8EEFB6"/>
<stop offset="1" stop-color="#00B3AD"/>
</linearGradient>
</defs>
</svg>
