<svg width="1306" height="285" viewBox="0 0 1306 285" fill="none" xmlns="http://www.w3.org/2000/svg">
<g opacity="0.15" filter="url(#filter0_f_15592_67025)">
<path d="M747.784 122.654C748.029 122.654 748.235 122.839 748.263 123.082L762.748 252.073C762.78 252.358 763.163 252.427 763.293 252.172L829.012 122.918C829.094 122.757 829.259 122.654 829.44 122.654H881.618C881.982 122.655 882.214 123.043 882.043 123.363L784.816 305.257C776.683 320.44 768.956 334.403 761.636 347.146C754.586 359.888 747.401 370.869 740.081 380.087C732.761 389.305 725.169 396.49 717.307 401.642C709.444 406.793 701.039 409.368 692.092 409.368C680.362 409.368 671.516 407.402 665.553 403.471C665.373 403.352 665.298 403.126 665.367 402.922L678.495 363.938C678.588 363.66 678.905 363.53 679.17 363.653C680.63 364.334 682.091 364.796 683.552 365.039C685.45 365.31 687.212 365.446 688.839 365.446C695.346 365.446 701.988 362.328 708.766 356.092C715.544 349.856 722.323 339.824 729.1 325.997L690.979 123.225C690.924 122.928 691.151 122.655 691.452 122.654H747.784ZM555.585 20C559.923 20 564.804 20.2712 570.226 20.8135C575.92 21.0846 581.478 21.7622 586.9 22.8467C592.323 23.66 597.609 24.745 602.761 26.1006C607.912 27.4562 612.521 29.0827 616.588 30.9805L604.794 67.9893C598.558 65.5493 592.187 63.9218 585.681 63.1084C579.174 62.295 572.801 61.8887 566.565 61.8887C557.89 61.8888 551.519 64.465 547.452 69.6162C543.656 74.7676 540.945 82.7654 539.318 93.6104L536.878 107.031H576.963C577.265 107.031 577.493 107.307 577.435 107.604L569.488 148.53C569.444 148.756 569.246 148.92 569.016 148.92H530.371L500.276 324.201C498.65 334.233 496.344 343.451 493.362 351.855C490.38 360.531 486.177 367.988 480.755 374.224C475.603 380.731 468.961 385.747 460.827 389.271C452.693 393.067 442.661 394.965 430.732 394.965C420.972 394.965 411.483 394.151 402.265 392.524C392.921 391.19 384.892 388.278 378.177 383.789C377.992 383.666 377.918 383.431 377.996 383.224L391.516 347.035C391.612 346.78 391.9 346.655 392.152 346.757C396.608 348.548 401.063 349.705 405.518 350.229C410.128 350.772 415.957 351.043 423.006 351.043C431.682 351.043 438.324 347.518 442.933 340.469C447.814 333.691 451.474 322.574 453.914 307.12L479.535 148.92H451.662C451.356 148.92 451.128 148.637 451.191 148.338L459.932 107.412C459.98 107.19 460.176 107.031 460.403 107.031H486.042L491.329 79.7832C493.227 69.7516 495.667 61.0752 498.649 53.7549C501.632 46.1636 505.563 39.928 510.443 35.0479C515.595 29.8965 521.695 26.1003 528.744 23.6602C536.064 21.2201 545.011 20 555.585 20ZM356.653 116.961C367.769 116.961 377.258 118.452 385.121 121.435C393.255 124.146 399.897 128.077 405.049 133.229C410.2 138.109 413.996 143.803 416.436 150.31C418.876 156.816 420.097 163.73 420.097 171.05C420.097 182.166 417.249 191.926 411.556 200.331C405.862 208.736 397.864 215.786 387.561 221.479C377.53 226.902 365.329 231.105 350.96 234.087C336.59 236.798 320.865 238.153 303.784 238.153H297.683C295.786 237.882 293.753 237.747 291.584 237.747C291.042 241 290.634 243.982 290.363 246.693C290.092 249.133 289.957 251.438 289.957 253.607C289.957 265.808 293.075 274.891 299.31 280.855C305.817 286.82 314.9 289.803 326.558 289.803C338.488 289.803 349.197 288.04 358.686 284.516C368.176 280.991 375.361 277.466 380.241 273.941L390.815 306.477C382.41 313.526 371.565 319.491 358.28 324.371C344.995 329.251 329.541 331.691 311.918 331.691C289.957 331.691 272.605 325.32 259.862 312.577C247.39 299.563 241.154 281.533 241.154 258.487C241.154 236.798 244.543 217.277 251.321 199.925C258.099 182.302 266.912 167.39 277.757 155.189C288.873 142.989 301.345 133.635 315.172 127.128C328.999 120.35 342.826 116.961 356.653 116.961ZM678.737 41.3174C679.043 41.3176 679.271 41.5991 679.208 41.8984L631.749 265.808C630.122 273.67 630.122 279.5 631.749 283.296C633.647 287.091 636.629 288.989 640.696 288.989C648.025 288.989 654.976 287.599 661.547 284.819C661.873 284.681 662.236 284.927 662.224 285.281L661.039 320.451C661.034 320.613 660.948 320.761 660.809 320.845C655.938 323.766 648.963 326.162 639.883 328.031C630.664 329.929 621.582 330.878 612.635 330.878C600.977 330.878 592.03 328.709 585.794 324.371C579.829 319.762 576.847 311.357 576.847 299.156C576.847 292.92 577.659 285.735 579.286 277.602L629.228 41.6992C629.276 41.4767 629.472 41.3174 629.699 41.3174H678.737ZM1124.27 52.4473C1124.51 52.4474 1124.72 52.6238 1124.76 52.8643L1170.92 326.044C1170.98 326.349 1170.74 326.628 1170.43 326.628H1117.45C1117.2 326.628 1116.99 326.447 1116.95 326.203L1109 274.465H1007.21L982.182 326.345C982.098 326.518 981.923 326.628 981.731 326.628H929.221C928.849 326.628 928.608 326.237 928.773 325.904L1065.08 52.7246C1065.16 52.5551 1065.33 52.4474 1065.52 52.4473H1124.27ZM1284.74 52.8457C1285.05 52.8459 1285.29 53.1225 1285.24 53.4268L1240.53 326.208C1240.49 326.45 1240.28 326.628 1240.04 326.628H1189.6C1189.3 326.628 1189.06 326.35 1189.11 326.046L1234.19 53.2637C1234.23 53.0225 1234.44 52.8457 1234.68 52.8457H1284.74ZM154.907 37.25C167.379 37.25 179.173 38.7413 190.289 41.7236C201.405 44.706 211.03 49.3159 219.164 55.5518C227.297 61.5164 233.669 69.3785 238.278 79.1387C243.158 88.6279 245.598 99.8798 245.599 112.894C245.599 127.805 243.294 140.82 238.684 151.936C234.346 162.781 228.518 171.999 221.197 179.591C213.877 186.911 205.472 192.74 195.982 197.078C186.764 201.145 177.275 203.856 167.515 205.212L222.512 325.315C222.658 325.634 222.425 325.997 222.074 325.997H164.602C164.398 325.997 164.216 325.868 164.148 325.675L125.22 214.565L97.1581 209.278L72.8368 325.614C72.7901 325.837 72.5931 325.997 72.3651 325.997H20.4823C20.1762 325.997 19.9471 325.715 20.0106 325.416L79.6034 44.4785C79.6437 44.2883 79.7951 44.1412 79.9862 44.1055C92.8971 41.6959 105.941 39.9527 119.119 38.877C132.404 37.7925 144.333 37.25 154.907 37.25ZM1084.34 116.551C1084.3 116.26 1083.9 116.202 1083.78 116.466L1028 231.702H1102.43L1084.34 116.551ZM349.333 157.63C337.403 157.63 326.965 162.239 318.018 171.457C309.342 180.675 302.971 192.198 298.904 206.025C306.496 206.025 314.494 205.754 322.898 205.212C331.574 204.67 339.572 203.45 346.892 201.552C354.213 199.383 360.314 196.4 365.194 192.604C370.074 188.538 372.515 183.115 372.515 176.337C372.514 172.27 371.023 168.203 368.041 164.137C365.059 159.799 358.822 157.63 349.333 157.63ZM150.433 86.8662C145.011 86.8662 139.859 87.1375 134.979 87.6797C130.37 87.9508 126.439 88.3572 123.185 88.8994L105.292 171.457H126.847C134.709 171.457 142.436 170.779 150.027 169.424C157.619 167.797 164.261 165.086 169.955 161.29C175.92 157.223 180.664 151.936 184.188 145.429C187.984 138.922 189.883 130.653 189.883 120.621C189.883 111.403 186.764 103.54 180.528 97.0332C174.292 90.2553 164.261 86.8662 150.433 86.8662Z" fill="url(#paint0_linear_15592_67025)"/>
</g>
<defs>
<filter id="filter0_f_15592_67025" x="0" y="0" width="1305.24" height="429.368" filterUnits="userSpaceOnUse" color-interpolation-filters="sRGB">
<feFlood flood-opacity="0" result="BackgroundImageFix"/>
<feBlend mode="normal" in="SourceGraphic" in2="BackgroundImageFix" result="shape"/>
<feGaussianBlur stdDeviation="10" result="effect1_foregroundBlur_15592_67025"/>
</filter>
<linearGradient id="paint0_linear_15592_67025" x1="652.622" y1="20" x2="652.622" y2="409.368" gradientUnits="userSpaceOnUse">
<stop stop-color="#00B3AD" stop-opacity="0"/>
<stop offset="1" stop-color="#00B3AD"/>
</linearGradient>
</defs>
</svg>
