<svg width="80" height="62" viewBox="0 0 80 62" fill="none" xmlns="http://www.w3.org/2000/svg">
<path d="M64.2086 34.8785L45.5344 39.8822L53.191 68.4572L65.1679 65.248C67.08 64.7357 68.2817 64.4112 69.1687 64.0941C70.0112 63.7929 70.2303 63.6105 70.2912 63.5557C70.7358 63.1554 71.0424 62.6243 71.1668 62.0392C71.1839 61.9587 71.2311 61.6776 71.0708 60.7981C70.902 59.8715 70.5832 58.6689 70.071 56.7571L64.2086 34.8785ZM24.9941 68.8354C25.5064 70.7472 25.8316 71.948 26.1487 72.8349C26.45 73.6777 26.6322 73.8966 26.6871 73.9575C27.0873 74.402 27.6176 74.7089 28.2027 74.8333C28.2828 74.8503 28.5644 74.8985 29.445 74.738C30.3716 74.5691 31.5739 74.2495 33.4857 73.7372L45.4636 70.5278L37.8069 41.9528L19.1318 46.9568L24.9941 68.8354ZM66.767 18.0258C66.5954 17.3855 66.4752 16.9468 66.3788 16.6224C66.0499 16.7011 65.6103 16.8172 64.9706 16.9887L41.1129 23.3813L43.4638 32.1548L67.3214 25.7622C67.9612 25.5907 68.3996 25.4706 68.7239 25.3743C68.6452 25.0453 68.5301 24.6057 68.3586 23.9657L66.767 18.0258ZM10.0814 39.5811C10.2529 40.221 10.372 40.6595 10.4684 40.9838C10.7975 40.9051 11.2373 40.7899 11.8778 40.6182L35.7364 34.2254L33.3855 25.4518L9.52699 31.8447C8.88641 32.0164 8.44768 32.1356 8.12333 32.232C8.20204 32.561 8.31822 33.0008 8.4898 33.6412L10.0814 39.5811ZM48.7322 10.1235C48.5317 9.37566 48.0509 8.75075 47.4158 8.3764C46.7836 8.00375 46.0523 7.9087 45.3804 8.08871C43.0268 8.71935 41.5605 10.8929 40.7678 14.2261C40.6862 14.569 40.6165 14.9113 40.5554 15.2485L46.8472 13.5626C47.519 13.3826 48.1048 12.9346 48.466 12.2958C48.8289 11.6539 48.9327 10.8716 48.7322 10.1235ZM20.1572 17.7802C20.3577 18.5282 20.8388 19.1539 21.4739 19.5283C22.106 19.9009 22.8375 19.9959 23.5093 19.816L29.801 18.1301C29.5796 17.8687 29.3489 17.6068 29.1069 17.3506C26.7538 14.8602 24.3962 13.7114 22.0426 14.3421C21.3708 14.5222 20.7848 14.9702 20.4237 15.6089C20.061 16.2506 19.9569 17.0323 20.1572 17.7802ZM56.4596 8.05299C56.7092 8.98456 56.83 9.93795 56.83 10.8877L62.9 9.26125C63.7604 9.03071 64.6377 8.79214 65.3982 8.65355C66.1039 8.52492 66.9686 8.42777 67.9264 8.56554L68.3424 8.63908L68.6273 8.7063C69.9518 9.04297 71.1576 9.73914 72.1114 10.7178L72.312 10.931L72.5837 11.2545C73.1819 12.015 73.5301 12.8125 73.7716 13.488C74.0318 14.2158 74.2639 15.0949 74.4944 15.9553L76.086 21.8952C76.3165 22.7556 76.5551 23.6329 76.6937 24.3933C76.8407 25.1997 76.9466 26.2136 76.7079 27.3366C76.3823 28.8685 75.5798 30.2583 74.416 31.3063C73.5846 32.0549 72.6787 32.4678 71.9188 32.7438L77.7984 54.6865C78.2765 56.4709 78.7003 58.0408 78.9414 59.3635C79.1908 60.7323 79.3158 62.1779 78.9919 63.7024C78.5162 65.9401 77.3442 67.97 75.6441 69.5008C74.486 70.5436 73.1715 71.1581 71.8613 71.6265C70.5952 72.0791 69.023 72.4972 67.2385 72.9754L35.5563 81.4646C33.7719 81.9427 32.202 82.3665 30.8793 82.6076C29.5104 82.8571 28.064 82.9824 26.5395 82.6584C24.3018 82.1826 22.2718 81.0107 20.7411 79.3106C19.6983 78.1524 19.0837 76.838 18.6153 75.5278C18.1628 74.2618 17.7448 72.6903 17.2667 70.9059L11.3872 48.9632C10.5911 49.1041 9.6009 49.1992 8.5067 48.9666C6.97469 48.641 5.58507 47.8387 4.53705 46.6747C3.76872 45.8214 3.35273 44.8908 3.07677 44.1189C2.81658 43.3911 2.58453 42.512 2.35398 41.6516L0.762398 35.7117C0.531854 34.8513 0.293288 33.974 0.154693 33.2136C0.00770077 32.407 -0.097612 31.3925 0.141166 30.2691C0.46687 28.7373 1.26922 27.3474 2.43305 26.2994L2.75656 26.0277C3.51687 25.4299 4.31381 25.0815 4.98912 24.8401C5.71698 24.5799 6.59603 24.3479 7.45643 24.1173L13.5265 22.4909C13.0516 21.6684 12.6794 20.7823 12.4298 19.8507C11.6923 17.0978 12.0549 14.1558 13.4601 11.6706C14.8669 9.18263 17.2056 7.35602 19.972 6.61467C25.7401 5.0691 30.4212 7.71328 33.5171 10.488C34.8109 6.53713 37.5419 1.90682 43.3099 0.361304C46.0765 -0.380009 49.0158 0.0321889 51.4783 1.48365C53.9378 2.93335 55.7219 5.30009 56.4596 8.05299Z" fill="url(#paint0_linear_14996_338566)"/>
<defs>
<linearGradient id="paint0_linear_14996_338566" x1="31.6409" y1="3.48798" x2="51.3974" y2="77.22" gradientUnits="userSpaceOnUse">
<stop stop-color="#E2E3E2" stop-opacity="0.25"/>
<stop offset="1" stop-color="#E2E3E2"/>
</linearGradient>
</defs>
</svg>
