<svg width="16" height="16" viewBox="0 0 16 16" fill="none" xmlns="http://www.w3.org/2000/svg">
<g clip-path="url(#clip0_20474_101735)">
<path d="M10.6663 5.33334V3.33334L12.6663 1.33334L13.333 2.66667L14.6663 3.33334L12.6663 5.33334H10.6663ZM10.6663 5.33334L7.99965 7.99997M14.6663 8C14.6663 11.6819 11.6816 14.6667 7.99967 14.6667C4.31778 14.6667 1.33301 11.6819 1.33301 8C1.33301 4.3181 4.31778 1.33334 7.99967 1.33334M11.333 8C11.333 9.84095 9.84062 11.3333 7.99967 11.3333C6.15872 11.3333 4.66634 9.84095 4.66634 8C4.66634 6.15905 6.15872 4.66667 7.99967 4.66667" stroke="#1C1F23" stroke-width="1.5" stroke-linecap="round" stroke-linejoin="round"/>
</g>
<defs>
<clipPath id="clip0_20474_101735">
<rect width="16" height="16" fill="white"/>
</clipPath>
</defs>
</svg>
