<svg width="370" height="180" viewBox="0 0 370 180" fill="none" xmlns="http://www.w3.org/2000/svg">
<g filter="url(#filter0_d_2524_43650)">
<path d="M103.437 99.6581C105.528 99.6581 107.226 97.9604 107.226 95.8686V84.1213C107.226 82.0295 105.528 80.3318 103.437 80.3318C101.345 80.3318 99.6471 82.0295 99.6471 84.1213V95.8686C99.6471 97.9604 101.345 99.6581 103.437 99.6581Z" fill="white"/>
<path d="M89.6378 109.475C91.7296 109.475 93.4273 107.778 93.4273 105.686V74.3091C93.4273 72.2173 91.7296 70.5196 89.6378 70.5196C87.546 70.5196 85.8484 72.2173 85.8484 74.3091V105.686C85.8484 107.778 87.546 109.475 89.6378 109.475Z" fill="white"/>
<path d="M75.8441 118.56C77.9359 118.56 79.6336 116.862 79.6336 114.771V65.2295C79.6336 63.1377 77.9359 61.44 75.8441 61.44C73.7524 61.44 72.0547 63.1377 72.0547 65.2295V114.771C72.0547 116.862 73.7524 118.56 75.8441 118.56Z" fill="white"/>
<path d="M62.0404 109.475C64.1321 109.475 65.8298 107.778 65.8298 105.686V74.3091C65.8298 72.2173 64.1321 70.5196 62.0404 70.5196C59.9486 70.5196 58.2509 72.2173 58.2509 74.3091V105.686C58.2509 107.778 59.9486 109.475 62.0404 109.475Z" fill="white"/>
<path d="M48.2416 99.6581C50.3334 99.6581 52.0311 97.9604 52.0311 95.8686V84.1263C52.0311 82.0345 50.3334 80.3368 48.2416 80.3368C46.1498 80.3368 44.4521 82.0345 44.4521 84.1263V95.8686C44.4521 97.9604 46.1498 99.6581 48.2416 99.6581Z" fill="white"/>
<path d="M176.21 99.6581C178.302 99.6581 179.999 97.9604 179.999 95.8686V84.1213C179.999 82.0295 178.302 80.3318 176.21 80.3318C174.118 80.3318 172.421 82.0295 172.421 84.1213V95.8686C172.421 97.9604 174.118 99.6581 176.21 99.6581Z" fill="white"/>
<path d="M162.411 109.475C164.503 109.475 166.201 107.778 166.201 105.686V74.3091C166.201 72.2173 164.503 70.5196 162.411 70.5196C160.319 70.5196 158.622 72.2173 158.622 74.3091V105.686C158.622 107.778 160.319 109.475 162.411 109.475Z" fill="white"/>
<path d="M148.618 118.56C150.709 118.56 152.407 116.862 152.407 114.771V65.2295C152.407 63.1377 150.709 61.44 148.618 61.44C146.526 61.44 144.828 63.1377 144.828 65.2295V114.771C144.828 116.862 146.526 118.56 148.618 118.56Z" fill="white"/>
<path d="M134.814 109.475C136.906 109.475 138.603 107.778 138.603 105.686V74.3091C138.603 72.2173 136.906 70.5196 134.814 70.5196C132.722 70.5196 131.024 72.2173 131.024 74.3091V105.686C131.024 107.778 132.722 109.475 134.814 109.475Z" fill="white"/>
<path d="M121.015 99.6581C123.107 99.6581 124.805 97.9604 124.805 95.8686V84.1263C124.805 82.0345 123.107 80.3368 121.015 80.3368C118.923 80.3368 117.226 82.0345 117.226 84.1263V95.8686C117.226 97.9604 118.923 99.6581 121.015 99.6581Z" fill="white"/>
<path d="M248.984 99.6581C251.076 99.6581 252.774 97.9604 252.774 95.8686V84.1213C252.774 82.0295 251.076 80.3318 248.984 80.3318C246.893 80.3318 245.195 82.0295 245.195 84.1213V95.8686C245.195 97.9604 246.893 99.6581 248.984 99.6581Z" fill="white"/>
<path d="M235.186 109.475C237.277 109.475 238.975 107.778 238.975 105.686V74.3091C238.975 72.2173 237.277 70.5196 235.186 70.5196C233.094 70.5196 231.396 72.2173 231.396 74.3091V105.686C231.396 107.778 233.094 109.475 235.186 109.475Z" fill="white"/>
<path d="M221.392 118.56C223.484 118.56 225.181 116.862 225.181 114.771V65.2295C225.181 63.1377 223.484 61.44 221.392 61.44C219.3 61.44 217.603 63.1377 217.603 65.2295V114.771C217.603 116.862 219.3 118.56 221.392 118.56Z" fill="white"/>
<path d="M207.588 109.475C209.68 109.475 211.378 107.778 211.378 105.686V74.3091C211.378 72.2173 209.68 70.5196 207.588 70.5196C205.496 70.5196 203.799 72.2173 203.799 74.3091V105.686C203.799 107.778 205.496 109.475 207.588 109.475Z" fill="white"/>
<path d="M193.789 99.6581C195.881 99.6581 197.579 97.9604 197.579 95.8686V84.1263C197.579 82.0345 195.881 80.3368 193.789 80.3368C191.698 80.3368 190 82.0345 190 84.1263V95.8686C190 97.9604 191.698 99.6581 193.789 99.6581Z" fill="white"/>
<path d="M321.758 99.6581C323.85 99.6581 325.547 97.9604 325.547 95.8686V84.1213C325.547 82.0295 323.85 80.3318 321.758 80.3318C319.666 80.3318 317.968 82.0295 317.968 84.1213V95.8686C317.968 97.9604 319.666 99.6581 321.758 99.6581Z" fill="white"/>
<path d="M307.959 109.475C310.051 109.475 311.749 107.778 311.749 105.686V74.3091C311.749 72.2173 310.051 70.5196 307.959 70.5196C305.867 70.5196 304.17 72.2173 304.17 74.3091V105.686C304.17 107.778 305.867 109.475 307.959 109.475Z" fill="white"/>
<path d="M294.165 118.56C296.257 118.56 297.955 116.862 297.955 114.771V65.2295C297.955 63.1377 296.257 61.44 294.165 61.44C292.074 61.44 290.376 63.1377 290.376 65.2295V114.771C290.376 116.862 292.074 118.56 294.165 118.56Z" fill="white"/>
<path d="M280.362 109.475C282.453 109.475 284.151 107.778 284.151 105.686V74.3091C284.151 72.2173 282.453 70.5196 280.362 70.5196C278.27 70.5196 276.572 72.2173 276.572 74.3091V105.686C276.572 107.778 278.27 109.475 280.362 109.475Z" fill="white"/>
<path d="M266.563 99.6581C268.655 99.6581 270.352 97.9604 270.352 95.8686V84.1263C270.352 82.0345 268.655 80.3368 266.563 80.3368C264.471 80.3368 262.773 82.0345 262.773 84.1263V95.8686C262.773 97.9604 264.471 99.6581 266.563 99.6581Z" fill="white"/>
</g>
<defs>
<filter id="filter0_d_2524_43650" x="-43.5479" y="-26.56" width="457.096" height="233.12" filterUnits="userSpaceOnUse" color-interpolation-filters="sRGB">
<feFlood flood-opacity="0" result="BackgroundImageFix"/>
<feColorMatrix in="SourceAlpha" type="matrix" values="0 0 0 0 0 0 0 0 0 0 0 0 0 0 0 0 0 0 127 0" result="hardAlpha"/>
<feOffset/>
<feGaussianBlur stdDeviation="44"/>
<feComposite in2="hardAlpha" operator="out"/>
<feColorMatrix type="matrix" values="0 0 0 0 1 0 0 0 0 0.24096 0 0 0 0 0.24096 0 0 0 1 0"/>
<feBlend mode="normal" in2="BackgroundImageFix" result="effect1_dropShadow_2524_43650"/>
<feBlend mode="normal" in="SourceGraphic" in2="effect1_dropShadow_2524_43650" result="shape"/>
</filter>
</defs>
</svg>
