<svg width="56" height="44" viewBox="0 0 56 44" fill="none" xmlns="http://www.w3.org/2000/svg">
<rect width="56" height="44" rx="22" fill="#1C1F23" fill-opacity="0.6"/>
<path d="M13.1149 17.004H14.8929L17.6369 25.152H17.6789L20.4229 17.004H22.2009L18.6449 27H16.6709L13.1149 17.004ZM24.1914 16.808C24.4994 16.808 24.7654 16.906 24.9754 17.102C25.1714 17.298 25.2834 17.55 25.2834 17.858C25.2834 18.166 25.1714 18.432 24.9614 18.628C24.7514 18.824 24.4994 18.922 24.1914 18.922C23.8834 18.922 23.6314 18.824 23.4214 18.628C23.2114 18.418 23.1134 18.166 23.1134 17.858C23.1134 17.55 23.2114 17.298 23.4214 17.102C23.6314 16.906 23.8834 16.808 24.1914 16.808ZM23.3934 19.762H24.9894V27H23.3934V19.762ZM30.0489 19.566C31.2389 19.566 32.1489 19.958 32.7789 20.77C33.3529 21.498 33.6469 22.52 33.6469 23.822H28.2289C28.2849 24.494 28.4669 25.012 28.7749 25.362C29.0829 25.712 29.5309 25.894 30.1049 25.894C30.5949 25.894 30.9869 25.782 31.2949 25.558C31.5329 25.376 31.7429 25.082 31.9389 24.676H33.5349C33.3669 25.348 33.0309 25.922 32.5269 26.37C31.8829 26.916 31.0849 27.196 30.1189 27.196C29.0409 27.196 28.1869 26.86 27.5569 26.202C26.8849 25.516 26.5489 24.578 26.5489 23.374C26.5489 22.296 26.8569 21.4 27.5009 20.672C28.1169 19.93 28.9709 19.566 30.0489 19.566ZM30.0909 20.868C29.5589 20.868 29.1529 21.008 28.8449 21.316C28.5509 21.61 28.3549 22.044 28.2569 22.618H31.9809C31.8409 21.442 31.2109 20.868 30.0909 20.868ZM34.1423 19.762H35.9063L37.3483 25.11L38.7763 19.762H40.2463L41.6743 25.11L43.1163 19.762H44.8803L42.4443 27H40.9603L39.5183 21.708L38.0623 27H36.5783L34.1423 19.762Z" fill="#F3F3F3"/>
</svg>
