<svg width="80" height="80" viewBox="0 0 80 80" fill="none" xmlns="http://www.w3.org/2000/svg">
<path d="M4 40C4 20.1178 20.1178 4 40 4C59.8822 4 76 20.1178 76 40C76 59.8822 59.8822 76 40 76C20.1178 76 4 59.8822 4 40Z" fill="#0E9F77"/>
<path d="M39.5479 59.9229C39.187 62.0922 37.596 63.8526 35.4737 64.4287C33.3509 65.0049 31.0869 64.2904 29.6787 62.6006C23.4491 55.1248 19.3288 40.5098 20.3877 24.626C20.5944 21.5263 23.2744 19.1811 26.3741 19.3877C29.4737 19.5944 31.8189 22.2744 31.6123 25.3741C31.1526 32.2702 31.8459 38.5141 33.1123 43.625C34.5777 40.6223 36.5043 37.5407 39.0225 35.0225C43.5021 30.5429 48.9548 28.6939 52.9981 27.9219C55.0493 27.5303 56.8419 27.3948 58.1387 27.3575C58.7904 27.3387 59.3271 27.3447 59.7188 27.3565C59.9147 27.3624 60.0754 27.3692 60.1973 27.376C60.2583 27.3794 60.3102 27.383 60.3516 27.3858C60.372 27.3872 60.3899 27.3885 60.4053 27.3897C60.413 27.3902 60.4203 27.3911 60.4268 27.3916C60.4301 27.3919 60.4336 27.3914 60.4366 27.3916C60.4379 27.3917 60.4396 27.3925 60.4405 27.3926C60.4425 27.3928 60.445 27.3927 60.0186 32.7696L60.4444 27.3926C63.5411 27.6382 65.8528 30.3477 65.6075 33.4444C65.3619 36.5401 62.6541 38.8511 59.5586 38.6075H59.5606C59.527 38.6057 59.4655 38.6032 59.3789 38.6006C59.1867 38.5948 58.8729 38.5908 58.4629 38.6026C57.6362 38.6264 56.4556 38.7145 55.1084 38.9717C52.3538 39.4976 49.3063 40.6489 46.9776 42.9776C44.5024 45.4528 42.5908 49.4554 41.2774 53.3506C40.6487 55.2151 40.2085 56.8956 39.9278 58.1045C39.7881 58.7063 39.6899 59.1845 39.628 59.501C39.5971 59.6587 39.5755 59.7758 39.5625 59.8477C39.5561 59.8836 39.551 59.9084 39.5489 59.9209L39.5479 59.9229ZM59.5899 38.6104C59.5886 38.6103 59.5848 38.6098 59.5791 38.6094C59.5764 38.6092 59.5731 38.6087 59.5694 38.6084C59.5673 38.6083 59.5649 38.6086 59.5625 38.6084L59.5606 38.6075L59.5899 38.6104Z" fill="white"/>
</svg>